g cosmNeck_coneA_mesh
v 0.08801443 -0.06734768 0.02918853
v 0.08080481 -0.067349076 0.026845952
v 0.0687373 -0.06733488 0.050529804
v 0.07487017 -0.0673322 0.054985594
v 0.049941693 -0.06732357 0.06932544
v 0.09254363 -0.06736478 0.0005922052
v 0.08496295 -0.06736478 0.0005922052
v 0.054397486 -0.06731993 0.07545834
v 0.026257798 -0.06731634 0.08139299
v 0.088014394 -0.06738199 -0.02800408
v 0.080804765 -0.06738055 -0.025661523
v 0.028600348 -0.06731205 0.08860259
v 4.03783E-06 -0.0673138 0.085551135
v 0.07487012 -0.06739741 -0.053801134
v 0.06873724 -0.06739479 -0.04934539
v 4.038873E-06 -0.06730931 0.09313179
v -0.026249714 -0.06731634 0.08139299
v 0.054397453 -0.067409806 -0.074273854
v 0.049941644 -0.067406036 -0.06814095
v -0.028592264 -0.06731205 0.08860259
v -0.049933556 -0.06732357 0.06932544
v 0.028600337 -0.067417674 -0.087418154
v 0.026257787 -0.06741328 -0.08020855
v -0.054389358 -0.0673199 0.07545831
v -0.06872916 -0.06733488 0.050529804
v 4.036042E-06 -0.067420356 -0.09194732
v 4.0354457E-06 -0.06741583 -0.084366694
v -0.07486204 -0.0673322 0.054985594
v -0.08079668 -0.067349076 0.026845952
v -0.028592264 -0.067417674 -0.087418154
v -0.026249714 -0.06741328 -0.08020855
v -0.088006325 -0.06734768 0.02918853
v -0.08495488 -0.06736478 0.0005922052
v -0.054389343 -0.06740973 -0.07427388
v -0.049933545 -0.067406036 -0.06814095
v -0.09253554 -0.06736478 0.0005922052
v -0.08079668 -0.06738055 -0.025661523
v -0.07486204 -0.06739741 -0.053801134
v -0.06872916 -0.06739479 -0.04934539
v -0.088006325 -0.06738199 -0.02800408
v 4.032168E-06 0.055833247 -0.22064449
v -0.06941568 0.058416963 -0.20995986
v 0.06942377 0.058416963 -0.20995986
v -0.13204011 0.06363574 -0.17973492
v -0.18173917 0.06691851 -0.13077419
v 0.13204822 0.06363574 -0.17973492
v -0.21364798 0.06838082 -0.06877074
v -0.22464299 0.06917486 -0.00092644483
v 0.18174726 0.06691851 -0.13077419
v -0.21364798 0.06610211 0.06671437
v 0.21365604 0.06838082 -0.06877074
v -0.18173917 0.05844703 0.1284198
v 0.2246511 0.06917486 -0.00092644483
v -0.13204016 0.04852282 0.17740394
v 0.21365623 0.06610211 0.06671437
v -0.069415726 0.04023208 0.2122737
v 0.18174736 0.05844706 0.12841986
v 4.038873E-06 0.037085645 0.22280516
v 0.13204828 0.04852278 0.17740403
v 0.0694238 0.04023208 0.2122737
v 0.21355045 0.07219977 0.06662311
v 0.2246511 0.06917486 -0.00092644483
v 0.21365623 0.06610211 0.06671437
v 0.22475797 0.07520645 -0.000951021
v 0.21365604 0.06838082 -0.06877074
v 0.18149427 0.06455963 0.12817144
v 0.18174736 0.05844706 0.12841986
v 0.21383674 0.07434933 -0.06883097
v 0.18174726 0.06691851 -0.13077419
v 0.13207906 0.054536726 0.17844181
v 0.13204828 0.04852278 0.17740403
v 0.18178704 0.07295029 -0.13079558
v 0.13204822 0.06363574 -0.17973492
v 0.06945052 0.046179295 0.21356851
v 0.0694238 0.04023208 0.2122737
v 0.13212681 0.069559254 -0.1798248
v 0.06942377 0.058416963 -0.20995986
v 4.0412574E-06 0.043051444 0.22406185
v 4.038873E-06 0.037085645 0.22280516
v 0.06963432 0.06412499 -0.21147694
v 4.032168E-06 0.055833247 -0.22064449
v -0.06944243 0.046179295 0.21356851
v -0.069415726 0.04023208 0.2122737
v 4.033956E-06 0.061365075 -0.222344
v -0.06941568 0.058416963 -0.20995986
v -0.13207096 0.054536726 0.17844181
v -0.13204016 0.04852282 0.17740394
v -0.06962624 0.06412506 -0.21147697
v -0.13204011 0.06363574 -0.17973492
v -0.18148606 0.06455958 0.12817132
v -0.18173917 0.05844703 0.1284198
v -0.13211872 0.06955931 -0.17982483
v -0.18173917 0.06691851 -0.13077419
v -0.21354228 0.07219968 0.06662316
v -0.21364798 0.06610211 0.06671437
v -0.18177894 0.072950326 -0.13079557
v -0.21364798 0.06838082 -0.06877074
v -0.22474986 0.07520645 -0.000951021
v -0.22464299 0.06917486 -0.00092644483
v -0.21382862 0.07434938 -0.068830945
v -0.12879063 0.05891569 0.17485343
v -0.1772162 0.06765806 0.12506181
v -0.20837885 0.075435445 0.0649382
v -0.21910116 0.078579485 -0.000955241
v -0.20836207 0.07776825 -0.067056656
v -0.17724447 0.076284796 -0.127502
v -0.067692816 0.050956532 0.20932715
v -0.12873471 0.072925396 -0.17516711
v 4.0448335E-06 0.04786606 0.21957704
v -0.067718126 0.0691753 -0.20659898
v 0.067700915 0.050956532 0.20932715
v 4.038277E-06 0.06662991 -0.2169748
v 0.12879872 0.058915634 0.17485347
v 0.0677262 0.0691753 -0.20659898
v 0.1772244 0.067658074 0.12506191
v 0.12874281 0.07292536 -0.17516701
v 0.20838705 0.07543546 0.06493822
v 0.1772526 0.076284796 -0.127502
v 0.21910924 0.078579485 -0.000955241
v 0.20837015 0.07776825 -0.06705662
v 0.1252523 0.05776877 0.16997375
v 0.17239349 0.06550604 0.12160202
v 0.20266005 0.07319026 0.06312188
v 0.2130891 0.07628386 -0.0009367922
v 0.20265995 0.0754888 -0.06520152
v 0.17239341 0.07402234 -0.12397921
v 0.06585097 0.05023504 0.20363814
v 0.12525223 0.07072718 -0.17037879
v 4.0463237E-06 0.04724479 0.21362653
v 0.065850936 0.06799994 -0.20082203
v -0.06584285 0.05023504 0.20363814
v 4.039767E-06 0.065544456 -0.21095619
v -0.12524422 0.05776877 0.16997375
v -0.06584285 0.06799994 -0.20082203
v -0.1723853 0.06550598 0.121601954
v -0.12524413 0.07072722 -0.1703789
v -0.20265186 0.07319026 0.06312181
v -0.17238528 0.07402234 -0.12397921
v -0.21308103 0.07628386 -0.0009367922
v -0.20265186 0.0754888 -0.065201566
v -0.049933556 -0.06732357 0.06932544
v -0.06872916 -0.06733488 0.050529804
v -0.026249714 -0.06731634 0.08139299
v -0.08079668 -0.067349076 0.026845952
v -0.08495488 -0.06736478 0.0005922052
v 4.03783E-06 -0.0673138 0.085551135
v -0.08079668 -0.06738055 -0.025661523
v -0.06872916 -0.06739479 -0.04934539
v 0.026257798 -0.06731634 0.08139299
v -0.049933545 -0.067406036 -0.06814095
v 0.049941693 -0.06732357 0.06932544
v -0.026249714 -0.06741328 -0.08020855
v 0.0687373 -0.06733488 0.050529804
v 4.0354457E-06 -0.06741583 -0.084366694
v 0.08080481 -0.067349076 0.026845952
v 0.026257787 -0.06741328 -0.08020855
v 0.08496295 -0.06736478 0.0005922052
v 0.049941644 -0.067406036 -0.06814095
v 0.080804765 -0.06738055 -0.025661523
v 0.06873724 -0.06739479 -0.04934539
vt 0.40894413 0.7228412
vt 0.40143758 0.7230173
vt 0.39786273 0.7494656
vt 0.40505835 0.7516432
vt 0.3862028 0.7733427
vt 0.40409935 0.69414485
vt 0.39677763 0.69675595
vt 0.3924594 0.77775276
vt 0.3676634 0.79240274
vt 0.3899293 0.6687326
vt 0.3840558 0.6733919
vt 0.37224233 0.7985591
vt 0.34403986 0.80474913
vt 0.3689811 0.64885944
vt 0.36489347 0.65515083
vt 0.3464205 0.8116554
vt 0.3178371 0.80951405
vt 0.3431075 0.6363913
vt 0.34109578 0.6436823
vt 0.31798494 0.8171573
vt 0.29151693 0.8057163
vt 0.31485018 0.6326456
vt 0.31511718 0.6402158
vt 0.2892633 0.8130354
vt 0.26767695 0.79389155
vt 0.28705052 0.6382138
vt 0.2893985 0.6450149
vt 0.2633334 0.8000755
vt 0.24860394 0.77527934
vt 0.2617625 0.6510287
vt 0.26620096 0.6572803
vt 0.2425814 0.7797601
vt 0.23616192 0.7517724
vt 0.24171087 0.67122984
vt 0.24776518 0.67578506
vt 0.2287825 0.754153
vt 0.23194675 0.725475
vt 0.22886029 0.6968653
vt 0.23596294 0.6992929
vt 0.22444546 0.7253959
vt 0.22930682 0.46963108
vt 0.15257259 0.5090765
vt 0.3141577 0.45370466
vt 0.0905257 0.56732804
vt 0.051125586 0.6423084
vt 0.3989256 0.46172696
vt 0.0377042 0.7254153
vt 0.050070673 0.8071525
vt 0.47601223 0.49686635
vt 0.08771601 0.88065606
vt 0.5375279 0.5543326
vt 0.14945568 0.9382905
vt 0.5778309 0.62649375
vt 0.22783309 0.9732181
vt 0.59313476 0.70763123
vt 0.3154551 0.98538697
vt 0.57969296 0.79101735
vt 0.4005483 0.9697832
vt 0.53915906 0.86667573
vt 0.4773516 0.929982
vt 0.94694716 0.4509298
vt 0.8979377 0.52218175
vt 0.9530191 0.45355645
vt 0.8934255 0.5173704
vt 0.8238669 0.56923896
vt 0.9756748 0.36840343
vt 0.98236173 0.36861455
vt 0.82141334 0.5632132
vt 0.73745495 0.59102637
vt 0.9786086 0.2787723
vt 0.98518485 0.27775925
vt 0.7371571 0.58446836
vt 0.64816636 0.58432907
vt 0.95404726 0.190948
vt 0.9600293 0.18808265
vt 0.65005064 0.57815343
vt 0.5645822 0.5520452
vt 0.9042464 0.117415
vt 0.90912056 0.112924084
vt 0.5678805 0.54653054
vt 0.4942739 0.49530327
vt 0.83502537 0.061739743
vt 0.8383687 0.056011416
vt 0.49888462 0.49105322
vt 0.4434153 0.42062727
vt 0.74944705 0.030097662
vt 0.7509903 0.023625508
vt 0.44917983 0.41778818
vt 0.41802585 0.33469826
vt 0.65984726 0.025778681
vt 0.6601777 0.019096527
vt 0.4243342 0.3333224
vt 0.41861698 0.2451646
vt 0.5752646 0.047749147
vt 0.5731378 0.041484557
vt 0.42512903 0.24599497
vt 0.44736964 0.16082445
vt 0.5047094 0.09571024
vt 0.5002795 0.09082301
vt 0.45317635 0.16375943
vt 0.74787676 0.037075013
vt 0.6600595 0.032482065
vt 0.57787955 0.05414089
vt 0.5096203 0.10097588
vt 0.45966047 0.16716012
vt 0.43217453 0.24708606
vt 0.8313601 0.06797781
vt 0.43152317 0.33206514
vt 0.89894855 0.12229642
vt 0.45637855 0.4144226
vt 0.9475309 0.19409262
vt 0.5049352 0.48547575
vt 0.9715266 0.2797709
vt 0.5718201 0.53962904
vt 0.96901065 0.3676495
vt 0.6518886 0.5710904
vt 0.94078815 0.44780618
vt 0.7366427 0.5773574
vt 0.88857526 0.51204884
vt 0.8185508 0.5564742
vt 0.9649011 0.28059572
vt 0.9623087 0.3660416
vt 0.93488187 0.44412297
vt 0.8839644 0.5067703
vt 0.8157105 0.5500774
vt 0.7358879 0.57042444
vt 0.9416057 0.19688584
vt 0.65327287 0.56434685
vt 0.8941634 0.12670577
vt 0.575148 0.5337964
vt 0.8280936 0.07365542
vt 0.50982946 0.4809643
vt 0.746517 0.043611355
vt 0.46246228 0.4115798
vt 0.66112 0.039292067
vt 0.43835676 0.3312339
vt 0.58107275 0.060326025
vt 0.439023 0.2484024
vt 0.5145078 0.10599941
vt 0.46580547 0.17051086
vt 0.7225526 0.21667454
vt 0.69586676 0.2158134
vt 0.7474696 0.22610027
vt 0.67016804 0.22318941
vt 0.6478375 0.2379682
vt 0.76803267 0.24291211
vt 0.63160527 0.2591986
vt 0.6226988 0.28426272
vt 0.7830188 0.2648597
vt 0.6219187 0.31061363
vt 0.7902775 0.2905252
vt 0.62938535 0.33569664
vt 0.7890876 0.31714737
vt 0.6443449 0.35692477
vt 0.77975255 0.34213877
vt 0.6643341 0.37356448
vt 0.76329243 0.36318034
vt 0.6887666 0.38305163
vt 0.7408744 0.37760878
vt 0.71513 0.3844291
vn 0.67773443 -0.71232694 0.18239073
vn -0.7268362 0.65809375 -0.19652396
vn -0.6315732 0.67326254 -0.38449055
vn 0.5890809 -0.72762156 0.3514976
vn -0.48083663 0.6947493 -0.53490144
vn 0.70762044 -0.7065477 -0.007983714
vn -0.7577281 0.6525151 0.008495301
vn 0.44666094 -0.75015783 0.48760337
vn -0.26541027 0.72078305 -0.6403352
vn 0.6740345 -0.7073815 -0.21281187
vn -0.72163385 0.6535684 0.22823913
vn 0.24470875 -0.77537954 0.58215475
vn -0 0.73057294 -0.6828347
vn 0.57773 -0.7104551 -0.40184766
vn -0.6188335 0.6566313 0.43113866
vn -0 -0.78493667 0.6195759
vn 0.26541036 0.7207831 -0.6403351
vn 0.42929927 -0.71684796 -0.5493915
vn -0.45722818 0.6626341 0.59317666
vn -0.24470945 -0.77537954 0.58215445
vn 0.4808368 0.69474924 -0.5349013
vn 0.23379378 -0.72524214 -0.64758354
vn -0.24818546 0.66952974 0.70009553
vn -0.44666156 -0.75015765 0.48760328
vn 0.63157356 0.6732623 -0.3844902
vn -0 -0.72994274 -0.6835082
vn -0 0.67392325 0.73880136
vn -0.5890811 -0.72762126 0.35149777
vn 0.72683626 0.6580936 -0.19652456
vn -0.23379378 -0.7252421 -0.64758354
vn 0.24818528 0.6695297 0.70009565
vn -0.6777345 -0.71232665 0.18239133
vn 0.757728 0.65251523 0.008494704
vn -0.42929927 -0.71684796 -0.5493915
vn 0.45722824 0.6626342 0.5931765
vn -0.70762056 -0.70654756 -0.007982925
vn 0.72163385 0.6535682 0.22823939
vn -0.57772976 -0.7104552 -0.40184778
vn 0.6188335 0.6566312 0.4311387
vn -0.6740344 -0.70738155 -0.21281175
vn -0 -0.70499766 -0.7092097
vn -0.24886595 -0.69774365 -0.67172873
vn 0.24886589 -0.6977438 -0.6717286
vn -0.45315465 -0.6847069 -0.5708129
vn -0.60568535 -0.6771477 -0.41787115
vn 0.45315462 -0.6847069 -0.5708129
vn -0.7041187 -0.6748322 -0.22094843
vn -0.74013025 -0.6723877 -0.010102973
vn 0.6056854 -0.6771479 -0.41787076
vn -0.7130138 -0.67605793 0.18589492
vn 0.7041185 -0.67483246 -0.2209485
vn -0.6252539 -0.6911619 0.36242616
vn 0.74013025 -0.6723877 -0.010103615
vn -0.4774153 -0.71686447 0.50811416
vn 0.7130139 -0.676058 0.18589446
vn -0.26437247 -0.74580103 0.6114639
vn 0.6252541 -0.6911618 0.36242604
vn -0 -0.7572287 0.65314984
vn 0.47741503 -0.7168644 0.5081145
vn 0.26437172 -0.745801 0.61146426
vn 0.80419415 0.5102372 0.30484384
vn 0.74013025 -0.6723877 -0.010103615
vn 0.7130139 -0.676058 0.18589446
vn 0.8634888 0.5043058 0.007920012
vn 0.7041185 -0.67483246 -0.2209485
vn 0.67978185 0.47006804 0.5629677
vn 0.6252541 -0.6911618 0.36242604
vn 0.8249711 0.49089178 -0.28008568
vn 0.6056854 -0.6771479 -0.41787076
vn 0.5250069 0.36604232 0.7683624
vn 0.47741503 -0.7168644 0.5081145
vn 0.6886752 0.49981782 -0.5252701
vn 0.45315462 -0.6847069 -0.5708129
vn 0.2952654 0.27265295 0.9156848
vn 0.26437172 -0.745801 0.61146426
vn 0.49510086 0.45850453 -0.7380032
vn 0.24886589 -0.6977438 -0.6717286
vn -0 0.24887738 0.96853507
vn -0 -0.7572287 0.65314984
vn 0.26429302 0.34891385 -0.89911526
vn -0 -0.70499766 -0.7092097
vn -0.29526582 0.27265126 0.91568524
vn -0.26437247 -0.74580103 0.6114639
vn 1.6627776E-07 0.28221604 -0.9593509
vn -0.24886595 -0.69774365 -0.67172873
vn -0.5250083 0.36604014 0.76836246
vn -0.4774153 -0.71686447 0.50811416
vn -0.2642936 0.34891203 -0.89911586
vn -0.45315465 -0.6847069 -0.5708129
vn -0.6797823 0.47006822 0.56296694
vn -0.6252539 -0.6911619 0.36242616
vn -0.4951023 0.45850208 -0.7380038
vn -0.60568535 -0.6771477 -0.41787115
vn -0.80419385 0.51023704 0.3048448
vn -0.7130138 -0.67605793 0.18589492
vn -0.68867546 0.49981737 -0.52527004
vn -0.7041187 -0.6748322 -0.22094843
vn -0.86349005 0.50430375 0.007920892
vn -0.74013025 -0.6723877 -0.010102973
vn -0.8249712 0.4908916 -0.28008556
vn -0.08164098 0.9496493 0.30249137
vn -0.06757435 0.97779524 0.19836895
vn -0.09490001 0.9893736 0.11015352
vn -0.1299223 0.99140394 0.0154391825
vn -0.123817556 0.9906047 -0.058064338
vn -0.088960834 0.9902214 -0.10746007
vn -0.061870936 0.9147972 0.39914683
vn -0.06500806 0.97921205 -0.1921401
vn 1.101211E-07 0.9081688 0.41860425
vn -0.047178075 0.9461349 -0.32031697
vn 0.061871205 0.9147972 0.39914662
vn 5.125822E-07 0.9227278 -0.38545206
vn 0.08164076 0.94964904 0.30249196
vn 0.04717885 0.94613427 -0.32031864
vn 0.06757375 0.97779524 0.19836923
vn 0.06500787 0.97921205 -0.19214006
vn 0.09489801 0.98937386 0.1101529
vn 0.088962294 0.99022114 -0.10746119
vn 0.1299211 0.99140406 0.015438585
vn 0.12381949 0.99060446 -0.0580651
vn -0.47186556 0.7267556 -0.49916843
vn -0.6162588 0.7041638 -0.3526734
vn -0.7018229 0.6903194 -0.1757943
vn -0.72811174 0.6853609 0.011567415
vn -0.6949691 0.68556046 0.21685226
vn -0.5983224 0.68867445 0.40955812
vn -0.26412332 0.75379163 -0.6016951
vn -0.44534916 0.69500333 0.56447726
vn -0 0.7634633 -0.64585114
vn -0.24393535 0.7045321 0.66643083
vn 0.2641235 0.7537916 -0.6016952
vn -0 0.70916903 0.7050385
vn 0.47186592 0.72675544 -0.4991684
vn 0.24393524 0.70453227 0.6664308
vn 0.6162592 0.7041635 -0.35267326
vn 0.44534922 0.6950035 0.564477
vn 0.701823 0.6903192 -0.1757949
vn 0.5983221 0.68867445 0.40955845
vn 0.7281117 0.6853609 0.011566908
vn 0.69496876 0.68556064 0.21685252
vn 0.4808368 0.69474924 -0.5349013
vn 0.63157356 0.6732623 -0.3844902
vn 0.26541036 0.7207831 -0.6403351
vn 0.72683626 0.6580936 -0.19652456
vn 0.757728 0.65251523 0.008494704
vn -0 0.73057294 -0.6828347
vn 0.72163385 0.6535682 0.22823939
vn 0.6188335 0.6566312 0.4311387
vn -0.26541027 0.72078305 -0.6403352
vn 0.45722824 0.6626342 0.5931765
vn -0.48083663 0.6947493 -0.53490144
vn 0.24818528 0.6695297 0.70009565
vn -0.6315732 0.67326254 -0.38449055
vn -0 0.67392325 0.73880136
vn -0.7268362 0.65809375 -0.19652396
vn -0.24818546 0.66952974 0.70009553
vn -0.7577281 0.6525151 0.008495301
vn -0.45722818 0.6626341 0.59317666
vn -0.72163385 0.6535684 0.22823913
vn -0.6188335 0.6566313 0.43113866
g cosmNeck_coneA_mesh_0
f 3/3/3 2/2/2 1/1/1
f 4/4/4 3/3/3 1/1/1
f 5/5/5 3/3/3 4/4/4
f 1/1/1 2/2/2 6/6/6
f 2/2/2 7/7/7 6/6/6
f 8/8/8 5/5/5 4/4/4
f 9/9/9 5/5/5 8/8/8
f 6/6/6 7/7/7 10/10/10
f 7/7/7 11/11/11 10/10/10
f 12/12/12 9/9/9 8/8/8
f 13/13/13 9/9/9 12/12/12
f 10/10/10 11/11/11 14/14/14
f 11/11/11 15/15/15 14/14/14
f 16/16/16 13/13/13 12/12/12
f 17/17/17 13/13/13 16/16/16
f 14/14/14 15/15/15 18/18/18
f 15/15/15 19/19/19 18/18/18
f 20/20/20 17/17/17 16/16/16
f 21/21/21 17/17/17 20/20/20
f 18/18/18 19/19/19 22/22/22
f 19/19/19 23/23/23 22/22/22
f 24/24/24 21/21/21 20/20/20
f 25/25/25 21/21/21 24/24/24
f 22/22/22 23/23/23 26/26/26
f 23/23/23 27/27/27 26/26/26
f 28/28/28 25/25/25 24/24/24
f 29/29/29 25/25/25 28/28/28
f 26/26/26 27/27/27 30/30/30
f 27/27/27 31/31/31 30/30/30
f 32/32/32 29/29/29 28/28/28
f 33/33/33 29/29/29 32/32/32
f 30/30/30 31/31/31 34/34/34
f 31/31/31 35/35/35 34/34/34
f 36/36/36 33/33/33 32/32/32
f 37/37/37 33/33/33 36/36/36
f 34/34/34 35/35/35 38/38/38
f 35/35/35 39/39/39 38/38/38
f 39/39/39 37/37/37 40/40/40
f 40/40/40 37/37/37 36/36/36
f 38/38/38 39/39/39 40/40/40
f 26/26/26 30/30/30 41/41/41
f 30/30/30 42/42/42 41/41/41
f 30/30/30 34/34/34 42/42/42
f 26/26/26 41/41/41 43/43/43
f 34/34/34 44/44/44 42/42/42
f 34/34/34 38/38/38 44/44/44
f 22/22/22 26/26/26 43/43/43
f 38/38/38 45/45/45 44/44/44
f 38/38/38 40/40/40 45/45/45
f 22/22/22 43/43/43 46/46/46
f 40/40/40 47/47/47 45/45/45
f 40/40/40 36/36/36 47/47/47
f 18/18/18 22/22/22 46/46/46
f 36/36/36 48/48/48 47/47/47
f 18/18/18 46/46/46 49/49/49
f 36/36/36 32/32/32 48/48/48
f 14/14/14 18/18/18 49/49/49
f 32/32/32 50/50/50 48/48/48
f 14/14/14 49/49/49 51/51/51
f 32/32/32 28/28/28 50/50/50
f 10/10/10 14/14/14 51/51/51
f 28/28/28 52/52/52 50/50/50
f 10/10/10 51/51/51 53/53/53
f 28/28/28 24/24/24 52/52/52
f 6/6/6 10/10/10 53/53/53
f 24/24/24 54/54/54 52/52/52
f 6/6/6 53/53/53 55/55/55
f 24/24/24 20/20/20 54/54/54
f 1/1/1 6/6/6 55/55/55
f 20/20/20 56/56/56 54/54/54
f 1/1/1 55/55/55 57/57/57
f 20/20/20 16/16/16 56/56/56
f 4/4/4 1/1/1 57/57/57
f 16/16/16 58/58/58 56/56/56
f 4/4/4 57/57/57 59/59/59
f 16/16/16 12/12/12 58/58/58
f 8/8/8 4/4/4 59/59/59
f 12/12/12 60/60/60 58/58/58
f 8/8/8 59/59/59 60/60/60
f 12/12/12 8/8/8 60/60/60
f 63/63/63 62/62/62 61/61/61
f 62/62/62 64/64/64 61/61/61
f 64/64/64 62/62/62 65/65/65
f 61/61/61 66/66/66 63/63/63
f 66/66/66 67/67/67 63/63/63
f 68/68/68 64/64/64 65/65/65
f 68/68/68 65/65/65 69/69/69
f 66/66/66 70/70/70 67/67/67
f 70/70/70 71/71/71 67/67/67
f 72/72/72 68/68/68 69/69/69
f 72/72/72 69/69/69 73/73/73
f 70/70/70 74/74/74 71/71/71
f 74/74/74 75/75/75 71/71/71
f 76/76/76 72/72/72 73/73/73
f 76/76/76 73/73/73 77/77/77
f 74/74/74 78/78/78 75/75/75
f 78/78/78 79/79/79 75/75/75
f 80/80/80 76/76/76 77/77/77
f 80/80/80 77/77/77 81/81/81
f 78/78/78 82/82/82 79/79/79
f 82/82/82 83/83/83 79/79/79
f 84/84/84 80/80/80 81/81/81
f 84/84/84 81/81/81 85/85/85
f 82/82/82 86/86/86 83/83/83
f 86/86/86 87/87/87 83/83/83
f 88/88/88 84/84/84 85/85/85
f 88/88/88 85/85/85 89/89/89
f 86/86/86 90/90/90 87/87/87
f 90/90/90 91/91/91 87/87/87
f 92/92/92 88/88/88 89/89/89
f 92/92/92 89/89/89 93/93/93
f 90/90/90 94/94/94 91/91/91
f 94/94/94 95/95/95 91/91/91
f 96/96/96 92/92/92 93/93/93
f 96/96/96 93/93/93 97/97/97
f 94/94/94 98/98/98 95/95/95
f 98/98/98 99/99/99 95/95/95
f 100/100/100 97/97/97 99/99/99
f 100/100/100 96/96/96 97/97/97
f 98/98/98 100/100/100 99/99/99
f 90/90/90 86/86/86 101/101/101
f 94/94/94 90/90/90 102/102/102
f 102/102/102 90/90/90 101/101/101
f 98/98/98 94/94/94 103/103/103
f 103/103/103 94/94/94 102/102/102
f 100/100/100 98/98/98 104/104/104
f 104/104/104 98/98/98 103/103/103
f 96/96/96 100/100/100 105/105/105
f 105/105/105 100/100/100 104/104/104
f 92/92/92 96/96/96 106/106/106
f 106/106/106 96/96/96 105/105/105
f 101/101/101 86/86/86 107/107/107
f 86/86/86 82/82/82 107/107/107
f 108/108/108 92/92/92 106/106/106
f 88/88/88 92/92/92 108/108/108
f 107/107/107 82/82/82 109/109/109
f 82/82/82 78/78/78 109/109/109
f 110/110/110 88/88/88 108/108/108
f 84/84/84 88/88/88 110/110/110
f 109/109/109 78/78/78 111/111/111
f 78/78/78 74/74/74 111/111/111
f 112/112/112 84/84/84 110/110/110
f 80/80/80 84/84/84 112/112/112
f 111/111/111 74/74/74 113/113/113
f 74/74/74 70/70/70 113/113/113
f 114/114/114 80/80/80 112/112/112
f 76/76/76 80/80/80 114/114/114
f 113/113/113 70/70/70 115/115/115
f 70/70/70 66/66/66 115/115/115
f 116/116/116 76/76/76 114/114/114
f 72/72/72 76/76/76 116/116/116
f 115/115/115 66/66/66 117/117/117
f 66/66/66 61/61/61 117/117/117
f 118/118/118 72/72/72 116/116/116
f 68/68/68 72/72/72 118/118/118
f 117/117/117 61/61/61 119/119/119
f 61/61/61 64/64/64 119/119/119
f 64/64/64 68/68/68 120/120/120
f 120/120/120 68/68/68 118/118/118
f 119/119/119 64/64/64 120/120/120
f 121/121/121 113/113/113 115/115/115
f 122/122/122 115/115/115 117/117/117
f 122/122/122 121/121/121 115/115/115
f 117/117/117 119/119/119 123/123/123
f 123/123/123 122/122/122 117/117/117
f 124/124/124 119/119/119 120/120/120
f 119/119/119 124/124/124 123/123/123
f 125/125/125 120/120/120 118/118/118
f 125/125/125 124/124/124 120/120/120
f 126/126/126 118/118/118 116/116/116
f 126/126/126 125/125/125 118/118/118
f 121/121/121 127/127/127 113/113/113
f 127/127/127 111/111/111 113/113/113
f 128/128/128 126/126/126 116/116/116
f 128/128/128 116/116/116 114/114/114
f 127/127/127 129/129/129 111/111/111
f 129/129/129 109/109/109 111/111/111
f 130/130/130 128/128/128 114/114/114
f 130/130/130 114/114/114 112/112/112
f 129/129/129 131/131/131 109/109/109
f 131/131/131 107/107/107 109/109/109
f 132/132/132 130/130/130 112/112/112
f 132/132/132 112/112/112 110/110/110
f 131/131/131 133/133/133 107/107/107
f 133/133/133 101/101/101 107/107/107
f 134/134/134 132/132/132 110/110/110
f 134/134/134 110/110/110 108/108/108
f 133/133/133 135/135/135 101/101/101
f 135/135/135 102/102/102 101/101/101
f 136/136/136 134/134/134 108/108/108
f 136/136/136 108/108/108 106/106/106
f 135/135/135 137/137/137 102/102/102
f 137/137/137 103/103/103 102/102/102
f 138/138/138 136/136/136 106/106/106
f 138/138/138 106/106/106 105/105/105
f 137/137/137 139/139/139 103/103/103
f 139/139/139 104/104/104 103/103/103
f 140/140/140 105/105/105 104/104/104
f 140/140/140 138/138/138 105/105/105
f 139/139/139 140/140/140 104/104/104
f 133/133/133 141/141/141 135/135/135
f 141/141/141 142/142/142 135/135/135
f 135/135/135 142/142/142 137/137/137
f 143/143/143 141/141/141 133/133/133
f 142/142/142 144/144/144 137/137/137
f 137/137/137 144/144/144 139/139/139
f 131/131/131 143/143/143 133/133/133
f 144/144/144 145/145/145 139/139/139
f 139/139/139 145/145/145 140/140/140
f 146/146/146 143/143/143 131/131/131
f 145/145/145 147/147/147 140/140/140
f 140/140/140 147/147/147 138/138/138
f 129/129/129 146/146/146 131/131/131
f 147/147/147 148/148/148 138/138/138
f 149/149/149 146/146/146 129/129/129
f 138/138/138 148/148/148 136/136/136
f 127/127/127 149/149/149 129/129/129
f 148/148/148 150/150/150 136/136/136
f 151/151/151 149/149/149 127/127/127
f 136/136/136 150/150/150 134/134/134
f 121/121/121 151/151/151 127/127/127
f 150/150/150 152/152/152 134/134/134
f 153/153/153 151/151/151 121/121/121
f 134/134/134 152/152/152 132/132/132
f 122/122/122 153/153/153 121/121/121
f 152/152/152 154/154/154 132/132/132
f 155/155/155 153/153/153 122/122/122
f 132/132/132 154/154/154 130/130/130
f 123/123/123 155/155/155 122/122/122
f 154/154/154 156/156/156 130/130/130
f 157/157/157 155/155/155 123/123/123
f 130/130/130 156/156/156 128/128/128
f 124/124/124 157/157/157 123/123/123
f 156/156/156 158/158/158 128/128/128
f 159/159/159 157/157/157 124/124/124
f 128/128/128 158/158/158 126/126/126
f 125/125/125 159/159/159 124/124/124
f 158/158/158 160/160/160 126/126/126
f 160/160/160 159/159/159 125/125/125
f 126/126/126 160/160/160 125/125/125
