g default
v 0.41293 -2.169462 0.248847
v 0.487886 -1.786239 0.446239
v 0.793706 -1.095555 0.586028
v 0.917792 -1.225743 0.327559
v 0.390512 -2.330156 0
v 1.15477 -0.121343 0.627688
v 0.943091 -1.313474 0
v 0.41293 -2.169462 -0.248847
v 1.434332 -0.124508 0.358695
v 1.116695 0.582652 0.601215
v 0.917792 -1.225743 -0.327559
v 0.487886 -1.786239 -0.446239
v 1.531832 -0.12559 0
v 1.421786 0.684726 0.339411
v 0.950692 0.977696 0.502223
v 1.092218 1.220119 0.30624
v 1.544177 0.758852 0
v 1.202439 1.356042 0
v 0.793706 -1.095555 -0.586028
v 0.326036 -1.951986 -0.475475
v 1.434332 -0.124508 -0.358695
v 1.421786 0.684726 -0.339411
v 1.092218 1.220119 -0.30624
v 0.527094 -1.055829 -0.674329
v 0.206503 -1.946603 -0.476862
v 1.15477 -0.121343 -0.627688
v 1.116695 0.582652 -0.601215
v 0.950692 0.977696 -0.502223
v 0.230906 -1.053496 -0.675209
v 0.113986 -1.89728 -0.485519
v 0.705495 -0.116188 -0.717282
v 0.688373 0.572857 -0.687108
v 0.636988 1.086784 -0.551562
v 0.012722 -1.035606 -0.677387
v -0.002933 -1.70336 -0.458893
v 0.230424 -0.112322 -0.717186
v 0.234258 0.596389 -0.684277
v 0.264838 1.13859 -0.54408
v -0.159714 -1.051704 -0.591704
v -0.020071 -2.035553 -0.264117
v -0.124706 -0.112983 -0.717129
v -0.142911 0.594414 -0.683711
v -0.109938 1.122388 -0.545054
v -0.31363 -1.151224 -0.333282
v -0.058741 -2.167628 0
v -0.398578 -0.118657 -0.627484
v -0.448618 0.605622 -0.596861
v -0.36703 1.003297 -0.496658
v -0.383905 -1.22179 0
v -0.020071 -2.035553 0.264117
v -0.630303 -0.129845 -0.358586
v -0.69095 0.668644 -0.33791
v -0.502483 1.221823 -0.303315
v -0.31363 -1.151224 0.333282
v -0.002933 -1.703361 0.458893
v -0.735518 -0.136814 0
v -0.796666 0.713102 0
v -0.57468 1.316865 0
v -0.630303 -0.129845 0.358586
v -0.690951 0.668644 0.33791
v -0.502483 1.221823 0.303315
v -0.159714 -1.051704 0.591704
v -0.398577 -0.118657 0.627484
v -0.448618 0.605622 0.596861
v -0.36703 1.003297 0.496658
v 0.113986 -1.89728 0.485519
v 0.012723 -1.035606 0.677387
v -0.124706 -0.112983 0.717129
v -0.142911 0.594414 0.683711
v 0.094265 -2.420609 0.22032
v -0.020071 -2.035553 0.264117
v -0.109938 1.122388 0.545054
v -0.502483 1.221823 0.303315
v 0.064052 -2.5975 0
v -0.058741 -2.167628 0
v -0.113448 1.506379 0.279675
v -0.57468 1.316865 0
v 0.094265 -2.420609 -0.22032
v -0.020071 -2.035553 -0.264117
v 0.113986 -1.89728 -0.485519
v -0.002933 -1.70336 -0.458893
v 0.206503 -1.946603 -0.476862
v 0.151918 -2.510967 -0.208748
v 0.326036 -1.951986 -0.475475
v 0.122003 -2.710886 0
v 0.224259 -2.512147 -0.208384
v 0.487886 -1.786239 -0.446239
v 0.41293 -2.169462 -0.248847
v 0.194262 -2.708354 0
v 0.390512 -2.330156 0
v 0.151918 -2.510967 0.208748
v 0.224259 -2.512147 0.208384
v 0.41293 -2.169462 0.248847
v 0.206503 -1.946603 0.476862
v 0.326036 -1.951986 0.475475
v 0.487886 -1.786239 0.446239
v 0.230906 -1.053497 0.675209
v 0.527094 -1.055829 0.674329
v 0.793706 -1.095555 0.586028
v 0.230424 -0.112322 0.717186
v 0.705495 -0.116188 0.717282
v 1.15477 -0.121343 0.627688
v 0.234258 0.596389 0.684277
v 0.688373 0.572857 0.687108
v 1.116695 0.582652 0.601215
v 0.264838 1.13859 0.54408
v 0.636988 1.086784 0.551562
v 0.950692 0.977696 0.502223
v 0.341646 1.580271 0.273633
v 0.73534 1.501698 0.281896
v 1.092218 1.220119 0.30624
v -0.124784 1.662361 0
v -0.502483 1.221823 -0.303315
v 0.822879 1.68442 0
v 1.202439 1.356042 0
v 0.391491 1.775979 0
v -0.113448 1.506379 -0.279675
v -0.36703 1.003297 -0.496658
v -0.109938 1.122388 -0.545054
v 0.341646 1.580271 -0.273633
v 0.264838 1.13859 -0.54408
v 0.73534 1.501698 -0.281896
v 1.092218 1.220119 -0.30624
v 0.636988 1.086784 -0.551562
v 0.950692 0.977696 -0.502223
vt 0.375 0.9375
vt 0.375 1
vt 0.4375 1
vt 0.4375 0.9375
vt 0.375 0.875
vt 0.5 1
vt 0.4375 0.875
vt 0.375 0.8125
vt 0.5 0.9375
vt 0.5625 1
vt 0.4375 0.8125
vt 0.375 0.75
vt 0.5 0.875
vt 0.5625 0.9375
vt 0.625 1
vt 0.625 0.9375
vt 0.5625 0.875
vt 0.625 0.875
vt 0.4375 0.75
vt 0.375 0.6875
vt 0.5 0.8125
vt 0.5625 0.8125
vt 0.625 0.8125
vt 0.4375 0.6875
vt 0.375 0.625
vt 0.5 0.75
vt 0.5625 0.75
vt 0.625 0.75
vt 0.4375 0.625
vt 0.375 0.5625
vt 0.5 0.6875
vt 0.5625 0.6875
vt 0.625 0.6875
vt 0.4375 0.5625
vt 0.375 0.5
vt 0.5 0.625
vt 0.5625 0.625
vt 0.625 0.625
vt 0.4375 0.5
vt 0.375 0.4375
vt 0.5 0.5625
vt 0.5625 0.5625
vt 0.625 0.5625
vt 0.4375 0.4375
vt 0.375 0.375
vt 0.5 0.5
vt 0.5625 0.5
vt 0.625 0.5
vt 0.4375 0.375
vt 0.375 0.3125
vt 0.5 0.4375
vt 0.5625 0.4375
vt 0.625 0.4375
vt 0.4375 0.3125
vt 0.375 0.25
vt 0.5 0.375
vt 0.5625 0.375
vt 0.625 0.375
vt 0.5 0.3125
vt 0.5625 0.3125
vt 0.625 0.3125
vt 0.4375 0.25
vt 0.5 0.25
vt 0.5625 0.25
vt 0.625 0.25
vt 0.375 0.1875
vt 0.4375 0.1875
vt 0.5 0.1875
vt 0.5625 0.1875
vt 0.3125 0.1875
vt 0.3125 0.25
vt 0.625 0.1875
vt 0.6875 0.25
vt 0.25 0.1875
vt 0.25 0.25
vt 0.6875 0.1875
vt 0.75 0.25
vt 0.1875 0.1875
vt 0.1875 0.25
vt 0.125 0.1875
vt 0.125 0.25
vt 0.125 0.125
vt 0.1875 0.125
vt 0.125 0.0625
vt 0.25 0.125
vt 0.1875 0.0625
vt 0.125 0
vt 0.1875 0
vt 0.25 0.0625
vt 0.25 0
vt 0.3125 0.125
vt 0.3125 0.0625
vt 0.3125 0
vt 0.375 0.125
vt 0.375 0.0625
vt 0.375 0
vt 0.4375 0.125
vt 0.4375 0.0625
vt 0.4375 0
vt 0.5 0.125
vt 0.5 0.0625
vt 0.5 0
vt 0.5625 0.125
vt 0.5625 0.0625
vt 0.5625 0
vt 0.625 0.125
vt 0.625 0.0625
vt 0.625 0
vt 0.6875 0.125
vt 0.6875 0.0625
vt 0.6875 0
vt 0.75 0.1875
vt 0.8125 0.25
vt 0.75 0.0625
vt 0.75 0
vt 0.75 0.125
vt 0.8125 0.1875
vt 0.875 0.25
vt 0.875 0.1875
vt 0.8125 0.125
vt 0.875 0.125
vt 0.8125 0.0625
vt 0.8125 0
vt 0.875 0.0625
vt 0.875 0
vn 0.8102225 -0.47069773 0.34926078
vn 0.57275015 -0.38879216 0.72166324
vn 0.5239912 -0.27432612 0.80633634
vn 0.8219047 -0.42056382 0.38418585
vn 0.87619597 -0.48195496 0
vn 0.50874025 -0.11439205 0.85328645
vn 0.8886164 -0.45865119 0
vn 0.8102225 -0.47069773 -0.34926078
vn 0.85824716 -0.21869406 0.4643111
vn 0.4362061 0.14759304 0.8876602
vn 0.8219047 -0.42056382 -0.38418585
vn 0.57275015 -0.38879216 -0.72166324
vn 0.9662628 -0.25755793 0
vn 0.8095409 0.19493298 0.553755
vn 0.35186693 0.37779093 0.85642487
vn 0.57863486 0.5132209 0.6338659
vn 0.9689343 0.24731809 0
vn 0.76703376 0.64160675 0
vn 0.5239908 -0.27432588 -0.8063367
vn 0.2388021 -0.3349991 -0.9114544
vn 0.85824716 -0.21869406 -0.4643111
vn 0.8095409 0.19493298 -0.553755
vn 0.57863486 0.5132209 -0.6338659
vn 0.130002 -0.133016 -0.9825509
vn -0.043386023 -0.28023514 -0.95895046
vn 0.50874025 -0.11439205 -0.85328645
vn 0.4362061 0.14759304 -0.8876602
vn 0.35186693 0.37779093 -0.85642487
vn -0.0008159998 -0.10575598 -0.99439174
vn -0.33564302 -0.286968 -0.89721406
vn 0.11504895 -0.021055993 -0.99313664
vn 0.09766896 0.13028996 -0.9866536
vn 0.12697901 0.38588107 -0.9137681
vn -0.18155903 -0.12613401 -0.97525716
vn -0.6757512 -0.2915821 -0.6770082
vn 1.0999996E-05 -0.0008929997 -0.99999964
vn 0.00042500003 0.13640502 -0.99065304
vn 0.004190001 0.4019041 -0.91567224
vn -0.63580316 -0.22242908 -0.73910725
vn -0.86492944 -0.3138328 -0.39167076
vn -0.1570789 -0.019751988 -0.9873885
vn -0.12960903 0.13104801 -0.9828672
vn -0.144764 0.413281 -0.899023
vn -0.8626468 -0.29033694 -0.41417992
vn -0.9483386 -0.31725988 0
vn -0.6042631 -0.10797302 -0.78943515
vn -0.55416614 0.09257601 -0.8272422
vn -0.45249006 0.35224107 -0.8192551
vn -0.9484557 -0.31690988 0
vn -0.86492944 -0.3138328 0.39167076
vn -0.8757649 -0.17642999 -0.44934195
vn -0.8732071 0.089079015 -0.47913906
vn -0.683622 0.49558896 -0.535773
vn -0.8626468 -0.29033694 0.41417992
vn -0.6757508 -0.2915819 0.6770088
vn -0.979158 -0.2031 0
vn -0.9938474 0.11075805 0
vn -0.81043816 0.58582413 0
vn -0.87576455 -0.17642991 0.44934276
vn -0.8732071 0.089079015 0.47913906
vn -0.683622 0.49558896 0.535773
vn -0.63580316 -0.22242908 0.73910725
vn -0.6042631 -0.10797302 0.78943515
vn -0.55416614 0.09257601 0.8272422
vn -0.45249006 0.35224107 0.8192551
vn -0.33564302 -0.286968 0.89721406
vn -0.18155906 -0.12613302 0.9752573
vn -0.1570789 -0.019751988 0.9873885
vn -0.12960903 0.13104801 0.9828672
vn -0.75225663 -0.35763982 0.55335677
vn -0.86492944 -0.3138328 0.39167076
vn -0.144764 0.413281 0.899023
vn -0.683622 0.49558896 0.535773
vn -0.9270096 -0.37503782 0
vn -0.9483386 -0.31725988 0
vn -0.27881804 0.70093805 0.65646505
vn -0.81043816 0.58582413 0
vn -0.75225616 -0.3576401 -0.5533572
vn -0.86492944 -0.3138328 -0.39167076
vn -0.33564302 -0.286968 -0.89721406
vn -0.6757512 -0.2915821 -0.6770082
vn -0.043386023 -0.28023514 -0.95895046
vn -0.27064788 -0.51609284 -0.8126487
vn 0.2388021 -0.3349991 -0.9114544
vn -0.5050458 -0.86309254 0
vn 0.61097366 -0.5411257 -0.5778357
vn 0.57275015 -0.38879216 -0.72166324
vn 0.8102225 -0.47069773 -0.34926078
vn 0.7336349 -0.67954385 0
vn 0.87619597 -0.48195496 0
vn -0.27064788 -0.51609284 0.8126487
vn 0.6109731 -0.5411261 0.5778361
vn 0.8102225 -0.47069773 0.34926078
vn -0.043386023 -0.28023514 0.95895046
vn 0.23880203 -0.335 0.9114541
vn 0.57275015 -0.38879216 0.72166324
vn -0.0008159998 -0.10575598 0.99439174
vn 0.13000101 -0.13301602 0.98255104
vn 0.5239912 -0.27432612 0.80633634
vn 1.0999996E-05 -0.0008929997 0.99999964
vn 0.11504895 -0.021055993 0.99313664
vn 0.50874025 -0.11439205 0.85328645
vn 0.00042500003 0.13640502 0.99065304
vn 0.09766896 0.13028996 0.9866536
vn 0.4362061 0.14759304 0.8876602
vn 0.0041910014 0.4019041 0.91567224
vn 0.12697901 0.38588107 0.9137681
vn 0.35186693 0.37779093 0.85642487
vn -0.0022779997 0.6900419 0.7237659
vn 0.27272388 0.6388767 0.7193457
vn 0.57863486 0.5132209 0.6338659
vn -0.38621408 0.92240924 0
vn -0.683622 0.49558896 -0.535773
vn 0.44087318 0.89756936 0
vn 0.76703376 0.64160675 0
vn 0.009464003 0.9999553 0
vn -0.27881804 0.70093805 -0.65646505
vn -0.45249006 0.35224107 -0.8192551
vn -0.144764 0.413281 -0.899023
vn -0.0022779997 0.6900419 -0.7237659
vn 0.004190001 0.4019041 -0.91567224
vn 0.27272412 0.6388772 -0.7193453
vn 0.57863486 0.5132209 -0.6338659
vn 0.12697901 0.38588107 -0.9137681
vn 0.35186693 0.37779093 -0.85642487
g default_0
f 3/3/3 2/2/2 1/1/1
f 4/4/4 3/3/3 1/1/1
f 4/4/4 1/1/1 5/5/5
f 6/6/6 3/3/3 4/4/4
f 7/7/7 4/4/4 5/5/5
f 7/7/7 5/5/5 8/8/8
f 9/9/9 6/6/6 4/4/4
f 9/9/9 4/4/4 7/7/7
f 10/10/10 6/6/6 9/9/9
f 11/11/11 7/7/7 8/8/8
f 11/11/11 8/8/8 12/12/12
f 13/13/13 9/9/9 7/7/7
f 13/13/13 7/7/7 11/11/11
f 14/14/14 10/10/10 9/9/9
f 14/14/14 9/9/9 13/13/13
f 15/15/15 10/10/10 14/14/14
f 16/16/16 15/15/15 14/14/14
f 16/16/16 14/14/14 17/17/17
f 17/17/17 14/14/14 13/13/13
f 18/18/18 16/16/16 17/17/17
f 19/19/19 11/11/11 12/12/12
f 19/19/19 12/12/12 20/20/20
f 21/21/21 13/13/13 11/11/11
f 17/17/17 13/13/13 21/21/21
f 21/21/21 11/11/11 19/19/19
f 18/18/18 17/17/17 22/22/22
f 22/22/22 17/17/17 21/21/21
f 23/23/23 18/18/18 22/22/22
f 24/24/24 19/19/19 20/20/20
f 24/24/24 20/20/20 25/25/25
f 26/26/26 21/21/21 19/19/19
f 22/22/22 21/21/21 26/26/26
f 26/26/26 19/19/19 24/24/24
f 23/23/23 22/22/22 27/27/27
f 27/27/27 22/22/22 26/26/26
f 28/28/28 23/23/23 27/27/27
f 29/29/29 24/24/24 25/25/25
f 29/29/29 25/25/25 30/30/30
f 31/31/31 26/26/26 24/24/24
f 27/27/27 26/26/26 31/31/31
f 31/31/31 24/24/24 29/29/29
f 28/28/28 27/27/27 32/32/32
f 32/32/32 27/27/27 31/31/31
f 33/33/33 28/28/28 32/32/32
f 34/34/34 29/29/29 30/30/30
f 34/34/34 30/30/30 35/35/35
f 36/36/36 31/31/31 29/29/29
f 32/32/32 31/31/31 36/36/36
f 36/36/36 29/29/29 34/34/34
f 33/33/33 32/32/32 37/37/37
f 37/37/37 32/32/32 36/36/36
f 38/38/38 33/33/33 37/37/37
f 39/39/39 34/34/34 35/35/35
f 39/39/39 35/35/35 40/40/40
f 41/41/41 36/36/36 34/34/34
f 37/37/37 36/36/36 41/41/41
f 41/41/41 34/34/34 39/39/39
f 38/38/38 37/37/37 42/42/42
f 42/42/42 37/37/37 41/41/41
f 43/43/43 38/38/38 42/42/42
f 44/44/44 39/39/39 40/40/40
f 44/44/44 40/40/40 45/45/45
f 46/46/46 41/41/41 39/39/39
f 42/42/42 41/41/41 46/46/46
f 46/46/46 39/39/39 44/44/44
f 43/43/43 42/42/42 47/47/47
f 47/47/47 42/42/42 46/46/46
f 48/48/48 43/43/43 47/47/47
f 49/49/49 44/44/44 45/45/45
f 49/49/49 45/45/45 50/50/50
f 51/51/51 46/46/46 44/44/44
f 47/47/47 46/46/46 51/51/51
f 51/51/51 44/44/44 49/49/49
f 48/48/48 47/47/47 52/52/52
f 52/52/52 47/47/47 51/51/51
f 53/53/53 48/48/48 52/52/52
f 54/54/54 49/49/49 50/50/50
f 54/54/54 50/50/50 55/55/55
f 56/56/56 51/51/51 49/49/49
f 52/52/52 51/51/51 56/56/56
f 56/56/56 49/49/49 54/54/54
f 53/53/53 52/52/52 57/57/57
f 57/57/57 52/52/52 56/56/56
f 58/58/58 53/53/53 57/57/57
f 59/59/59 56/56/56 54/54/54
f 57/57/57 56/56/56 59/59/59
f 58/58/58 57/57/57 60/60/60
f 60/60/60 57/57/57 59/59/59
f 61/61/61 58/58/58 60/60/60
f 59/59/59 54/54/54 62/62/62
f 62/62/62 54/54/54 55/55/55
f 60/60/60 59/59/59 63/63/63
f 63/63/63 59/59/59 62/62/62
f 61/61/61 60/60/60 64/64/64
f 64/64/64 60/60/60 63/63/63
f 65/65/65 61/61/61 64/64/64
f 62/62/62 55/55/55 66/66/66
f 63/63/63 62/62/62 67/67/67
f 67/67/67 62/62/62 66/66/66
f 64/64/64 63/63/63 68/68/68
f 68/68/68 63/63/63 67/67/67
f 65/65/65 64/64/64 69/69/69
f 69/69/69 64/64/64 68/68/68
f 66/66/66 55/55/55 70/70/70
f 55/55/55 71/71/71 70/70/70
f 72/72/72 65/65/65 69/69/69
f 73/73/73 65/65/65 72/72/72
f 70/70/70 71/71/71 74/74/74
f 71/71/71 75/75/75 74/74/74
f 76/76/76 73/73/73 72/72/72
f 77/77/77 73/73/73 76/76/76
f 74/74/74 75/75/75 78/78/78
f 75/75/75 79/79/79 78/78/78
f 78/78/78 79/79/79 80/80/80
f 79/79/79 81/81/81 80/80/80
f 78/78/78 80/80/80 82/82/82
f 83/83/83 78/78/78 82/82/82
f 74/74/74 78/78/78 83/83/83
f 83/83/83 82/82/82 84/84/84
f 70/70/70 74/74/74 85/85/85
f 85/85/85 74/74/74 83/83/83
f 86/86/86 83/83/83 84/84/84
f 85/85/85 83/83/83 86/86/86
f 86/86/86 84/84/84 87/87/87
f 88/88/88 86/86/86 87/87/87
f 89/89/89 86/86/86 88/88/88
f 89/89/89 85/85/85 86/86/86
f 90/90/90 89/89/89 88/88/88
f 91/91/91 70/70/70 85/85/85
f 91/91/91 85/85/85 89/89/89
f 66/66/66 70/70/70 91/91/91
f 92/92/92 89/89/89 90/90/90
f 92/92/92 91/91/91 89/89/89
f 93/93/93 92/92/92 90/90/90
f 94/94/94 66/66/66 91/91/91
f 94/94/94 91/91/91 92/92/92
f 67/67/67 66/66/66 94/94/94
f 95/95/95 92/92/92 93/93/93
f 95/95/95 94/94/94 92/92/92
f 96/96/96 95/95/95 93/93/93
f 97/97/97 67/67/67 94/94/94
f 97/97/97 94/94/94 95/95/95
f 68/68/68 67/67/67 97/97/97
f 98/98/98 95/95/95 96/96/96
f 98/98/98 97/97/97 95/95/95
f 99/99/99 98/98/98 96/96/96
f 100/100/100 68/68/68 97/97/97
f 100/100/100 97/97/97 98/98/98
f 69/69/69 68/68/68 100/100/100
f 101/101/101 98/98/98 99/99/99
f 101/101/101 100/100/100 98/98/98
f 102/102/102 101/101/101 99/99/99
f 103/103/103 69/69/69 100/100/100
f 103/103/103 100/100/100 101/101/101
f 72/72/72 69/69/69 103/103/103
f 104/104/104 101/101/101 102/102/102
f 104/104/104 103/103/103 101/101/101
f 105/105/105 104/104/104 102/102/102
f 106/106/106 72/72/72 103/103/103
f 106/106/106 103/103/103 104/104/104
f 76/76/76 72/72/72 106/106/106
f 107/107/107 104/104/104 105/105/105
f 107/107/107 106/106/106 104/104/104
f 108/108/108 107/107/107 105/105/105
f 109/109/109 76/76/76 106/106/106
f 109/109/109 106/106/106 107/107/107
f 110/110/110 107/107/107 108/108/108
f 110/110/110 109/109/109 107/107/107
f 111/111/111 110/110/110 108/108/108
f 112/112/112 76/76/76 109/109/109
f 112/112/112 77/77/77 76/76/76
f 113/113/113 77/77/77 112/112/112
f 114/114/114 110/110/110 111/111/111
f 115/115/115 114/114/114 111/111/111
f 116/116/116 109/109/109 110/110/110
f 116/116/116 112/112/112 109/109/109
f 114/114/114 116/116/116 110/110/110
f 117/117/117 113/113/113 112/112/112
f 117/117/117 112/112/112 116/116/116
f 118/118/118 113/113/113 117/117/117
f 119/119/119 118/118/118 117/117/117
f 120/120/120 117/117/117 116/116/116
f 119/119/119 117/117/117 120/120/120
f 120/120/120 116/116/116 114/114/114
f 121/121/121 119/119/119 120/120/120
f 122/122/122 114/114/114 115/115/115
f 122/122/122 120/120/120 114/114/114
f 121/121/121 120/120/120 122/122/122
f 123/123/123 122/122/122 115/115/115
f 124/124/124 121/121/121 122/122/122
f 124/124/124 122/122/122 123/123/123
f 125/125/125 124/124/124 123/123/123
