g default
v -0.97379 -0.904918 0.39896
v -0.771039 -0.800372 0.710402
v -0.419179 -0.805348 0.863499
v -0.564555 -1.096988 0.441564
v -1.053799 -1.008669 0
v -0.04023 -0.830692 0.90573
v -0.60796 -1.227872 0
v -0.978599 -0.962281 -0.3655
v -0.065782 -1.194874 0.449549
v 0.336659 -0.865165 0.846923
v -0.566331 -1.120244 -0.422819
v -0.771039 -0.800372 -0.710402
v -0.075574 -1.337223 0
v 0.443927 -1.167419 0.427724
v 0.679795 -0.898 0.690282
v 0.866704 -1.024929 0.390872
v 0.469611 -1.307683 0
v 0.934646 -1.146492 0
v -0.416217 -0.803873 -0.861945
v -0.949328 -0.364087 -0.908281
v -0.06517 -1.197907 -0.444276
v 0.441158 -1.161959 -0.429631
v 0.860712 -1.022418 -0.392303
v -0.528926 -0.320976 -1.151238
v -1.025598 0.114276 -0.915844
v -0.039421 -0.82947 -0.904374
v 0.334644 -0.864453 -0.846909
v 0.675576 -0.896609 -0.690526
v -0.560782 0.156238 -1.182858
v -0.920194 0.561702 -0.879356
v -0.022855 -0.32459 -1.226756
v 0.48178 -0.36298 -1.142194
v 0.888523 -0.424109 -0.904341
v -0.503319 0.574545 -1.106103
v -0.72001 0.945809 -0.682546
v -0.010701 0.164054 -1.266848
v 0.538384 0.143934 -1.176719
v 0.989926 0.100784 -0.913113
v -0.37661 0.961778 -0.828703
v -0.915024 1.052042 -0.348089
v -0.006194 0.580142 -1.176764
v 0.49099 0.576396 -1.095541
v 0.899305 0.561671 -0.873832
v -0.501358 1.227787 -0.400073
v -0.9879 1.072303 0
v -0.003614 0.973462 -0.87089
v 0.370075 0.970952 -0.818347
v 0.708563 0.944301 -0.679263
v -0.538043 1.319649 0
v -0.915153 1.006701 0.385951
v -0.000114 1.284537 -0.420659
v 0.496877 1.204333 -0.412074
v 0.904656 1.004333 -0.38423
v -0.501184 1.210235 0.420414
v -0.72001 0.945809 0.682546
v 0.000747 1.403218 0
v 0.539619 1.317186 0
v 0.98572 1.072303 0
v -0.000733 1.282646 0.426502
v 0.499631 1.209339 0.410509
v 0.909766 1.006065 0.383296
v -0.377969 0.962484 0.829225
v -0.003608 0.974124 0.871459
v 0.371807 0.971464 0.818438
v 0.712108 0.945287 0.679169
v -0.920194 0.561702 0.879356
v -0.505254 0.575194 1.106803
v -0.006157 0.580598 1.177619
v 0.493624 0.576412 1.095704
v -1.227659 0.561796 0.476348
v -0.915153 1.006701 0.385951
v 0.904437 0.561695 0.873669
v 0.909766 1.006065 0.383296
v -1.360868 0.571865 0
v -0.9879 1.072303 0
v 1.212219 0.561822 0.4722
v 0.98572 1.072303 0
v -1.251235 0.566658 -0.469688
v -0.915024 1.052042 -0.348089
v -0.920194 0.561702 -0.879356
v -0.72001 0.945809 -0.682546
v -1.025598 0.114276 -0.915844
v -1.399742 0.02395 -0.487962
v -0.949328 -0.364087 -0.908281
v -1.532316 -0.025255 0
v -1.287856 -0.501117 -0.482878
v -0.771039 -0.800372 -0.710402
v -0.978599 -0.962281 -0.3655
v -1.39807 -0.578759 0
v -1.053799 -1.008669 0
v -1.372727 0.03662 0.47502
v -1.259445 -0.476795 0.482208
v -0.97379 -0.904918 0.39896
v -1.025598 0.114276 0.915844
v -0.949328 -0.364087 0.908281
v -0.771039 -0.800372 0.710402
v -0.564551 0.154578 1.184685
v -0.531468 -0.323599 1.152859
v -0.419179 -0.805348 0.863499
v -0.011389 0.162822 1.268683
v -0.02305 -0.326522 1.228255
v -0.04023 -0.830692 0.90573
v 0.541844 0.14317 1.176854
v 0.484705 -0.363871 1.142282
v 0.336659 -0.865165 0.846923
v 0.996539 0.098935 0.912668
v 0.894038 -0.426228 0.90394
v 0.679795 -0.898 0.690282
v 1.339039 0.016054 0.473361
v 1.191952 -0.559429 0.480458
v 0.866704 -1.024929 0.390872
v 1.348208 0.571865 0
v 0.904656 1.004333 -0.38423
v 1.32089 -0.670641 0
v 0.934646 -1.146492 0
v 1.496689 -0.048225 0
v 1.204897 0.561736 -0.47352
v 0.708563 0.944301 -0.679263
v 0.899305 0.561671 -0.873832
v 1.329726 0.019048 -0.475742
v 0.989926 0.100784 -0.913113
v 1.184215 -0.555853 -0.482581
v 0.860712 -1.022418 -0.392303
v 0.888523 -0.424109 -0.904341
v 0.675576 -0.896609 -0.690526
vt 0.375 0.9375
vt 0.375 1
vt 0.4375 1
vt 0.4375 0.9375
vt 0.375 0.875
vt 0.5 1
vt 0.4375 0.875
vt 0.375 0.8125
vt 0.5 0.9375
vt 0.5625 1
vt 0.4375 0.8125
vt 0.375 0.75
vt 0.5 0.875
vt 0.5625 0.9375
vt 0.625 1
vt 0.625 0.9375
vt 0.5625 0.875
vt 0.625 0.875
vt 0.4375 0.75
vt 0.375 0.6875
vt 0.5 0.8125
vt 0.5625 0.8125
vt 0.625 0.8125
vt 0.4375 0.6875
vt 0.375 0.625
vt 0.5 0.75
vt 0.5625 0.75
vt 0.625 0.75
vt 0.4375 0.625
vt 0.375 0.5625
vt 0.5 0.6875
vt 0.5625 0.6875
vt 0.625 0.6875
vt 0.4375 0.5625
vt 0.375 0.5
vt 0.5 0.625
vt 0.5625 0.625
vt 0.625 0.625
vt 0.4375 0.5
vt 0.375 0.4375
vt 0.5 0.5625
vt 0.5625 0.5625
vt 0.625 0.5625
vt 0.4375 0.4375
vt 0.375 0.375
vt 0.5 0.5
vt 0.5625 0.5
vt 0.625 0.5
vt 0.4375 0.375
vt 0.375 0.3125
vt 0.5 0.4375
vt 0.5625 0.4375
vt 0.625 0.4375
vt 0.4375 0.3125
vt 0.375 0.25
vt 0.5 0.375
vt 0.5625 0.375
vt 0.625 0.375
vt 0.5 0.3125
vt 0.5625 0.3125
vt 0.625 0.3125
vt 0.4375 0.25
vt 0.5 0.25
vt 0.5625 0.25
vt 0.625 0.25
vt 0.375 0.1875
vt 0.4375 0.1875
vt 0.5 0.1875
vt 0.5625 0.1875
vt 0.3125 0.1875
vt 0.3125 0.25
vt 0.625 0.1875
vt 0.6875 0.25
vt 0.25 0.1875
vt 0.25 0.25
vt 0.6875 0.1875
vt 0.75 0.25
vt 0.1875 0.1875
vt 0.1875 0.25
vt 0.125 0.1875
vt 0.125 0.25
vt 0.125 0.125
vt 0.1875 0.125
vt 0.125 0.0625
vt 0.25 0.125
vt 0.1875 0.0625
vt 0.125 0
vt 0.1875 0
vt 0.25 0.0625
vt 0.25 0
vt 0.3125 0.125
vt 0.3125 0.0625
vt 0.3125 0
vt 0.375 0.125
vt 0.375 0.0625
vt 0.375 0
vt 0.4375 0.125
vt 0.4375 0.0625
vt 0.4375 0
vt 0.5 0.125
vt 0.5 0.0625
vt 0.5 0
vt 0.5625 0.125
vt 0.5625 0.0625
vt 0.5625 0
vt 0.625 0.125
vt 0.625 0.0625
vt 0.625 0
vt 0.6875 0.125
vt 0.6875 0.0625
vt 0.6875 0
vt 0.75 0.1875
vt 0.8125 0.25
vt 0.75 0.0625
vt 0.75 0
vt 0.75 0.125
vt 0.8125 0.1875
vt 0.875 0.25
vt 0.875 0.1875
vt 0.8125 0.125
vt 0.875 0.125
vt 0.8125 0.0625
vt 0.8125 0
vt 0.875 0.0625
vt 0.875 0
vn -0.59036016 -0.6825062 0.4308831
vn -0.45790288 -0.6073668 0.64917684
vn -0.22271499 -0.6452109 0.73082197
vn -0.270557 -0.85495 0.44256
vn -0.64947397 -0.7592889 0.040790994
vn -0.029350994 -0.6594389 0.7511849
vn -0.3030381 -0.9524913 0.03046801
vn -0.57657284 -0.70471376 -0.41345185
vn -0.05908098 -0.8848128 0.46218586
vn 0.16703098 -0.6560458 0.73600584
vn -0.25241116 -0.86103857 -0.44147626
vn -0.43913102 -0.60313606 -0.66587603
vn -0.064525016 -0.99789125 0.007046002
vn 0.16042808 -0.87943834 0.44816417
vn 0.42126516 -0.62283826 0.65924823
vn 0.5572799 -0.7024018 0.44279888
vn 0.18873899 -0.98202294 -0.002927
vn 0.60944885 -0.79279274 -0.007196998
vn -0.21695092 -0.64356774 -0.73399776
vn -0.5794029 -0.30952394 -0.7539809
vn -0.051122 -0.88441193 -0.46389896
vn 0.16164288 -0.8778304 -0.45087168
vn 0.5560321 -0.7003662 -0.4475661
vn -0.2924999 -0.30044192 -0.90784276
vn -0.6597243 0.048879027 -0.7499164
vn -0.029104993 -0.65895885 -0.7516158
vn 0.16731104 -0.6563362 -0.7356832
vn 0.42364675 -0.6227217 -0.65783066
vn -0.32993817 0.054631025 -0.9424205
vn -0.597336 0.394409 -0.698306
vn -0.004064997 -0.3057058 -0.9521173
vn 0.28269908 -0.3121141 -0.9070093
vn 0.59075713 -0.3228991 -0.7394202
vn -0.2892489 0.40148088 -0.8689927
vn -0.46370807 0.66020703 -0.5908481
vn 0.009539998 0.053785987 -0.99850684
vn 0.33896998 0.040177993 -0.9399389
vn 0.67920935 0.015526008 -0.7337804
vn -0.20456296 0.7137218 -0.66989183
vn -0.611828 0.712582 -0.343356
vn 0.008812002 0.40587708 -0.9138852
vn 0.29894307 0.39368805 -0.8692772
vn 0.61561704 0.36936203 -0.69612306
vn -0.24471313 0.8888535 -0.38736922
vn -0.6784238 0.7341118 0.028653992
vn 0.005397001 0.7274561 -0.68613315
vn 0.21371712 0.7145484 -0.66614234
vn 0.47252104 0.6590161 -0.58516806
vn -0.29500696 0.95518994 0.024148999
vn -0.62085694 0.69874597 0.35537398
vn 0.008328003 0.9107862 -0.4127941
vn 0.26375303 0.8823051 -0.38983604
vn 0.6230278 0.6909418 -0.3666549
vn -0.26029593 0.88392085 0.3884969
vn -0.4678779 0.66405183 0.58320284
vn 0.007259001 0.99996114 0.0050190003
vn 0.3084258 0.9512424 -0.0033829978
vn 0.6803071 0.7329031 -0.0059470013
vn 0.001932001 0.9114424 0.41142318
vn 0.263018 0.88375604 0.38703603
vn 0.62457216 0.6918572 0.36227515
vn -0.20777696 0.71336186 0.6692859
vn 0.0047779987 0.7263998 0.68725574
vn 0.21314101 0.71328706 0.66767704
vn 0.47119305 0.65821505 0.58713704
vn -0.608202 0.38934603 0.691737
vn -0.29000095 0.40233895 0.86834484
vn 0.009682 0.40604 0.913804
vn 0.29854208 0.39351714 0.8694923
vn -0.8186171 0.40251806 0.4096891
vn -0.62085694 0.69874597 0.35537398
vn 0.6142348 0.36962292 0.6972048
vn 0.62457216 0.6918572 0.36227515
vn -0.9050085 0.42477024 0.02302001
vn -0.6784238 0.7341118 0.028653992
vn 0.827892 0.375511 0.416637
vn 0.6803071 0.7329031 -0.0059470013
vn -0.8163968 0.4102049 -0.40648288
vn -0.611828 0.712582 -0.343356
vn -0.597336 0.394409 -0.698306
vn -0.46370807 0.66020703 -0.5908481
vn -0.6597243 0.048879027 -0.7499164
vn -0.8925173 0.032170016 -0.44986418
vn -0.5794029 -0.30952394 -0.7539809
vn -0.99956423 0.013059002 0.026473008
vn -0.79855716 -0.3716771 -0.4734581
vn -0.43913102 -0.60313606 -0.66587603
vn -0.57657284 -0.70471376 -0.41345185
vn -0.90573853 -0.4225128 0.03347498
vn -0.64947397 -0.7592889 0.040790994
vn -0.8917116 0.032763984 0.4514168
vn -0.8037891 -0.35768002 0.47538206
vn -0.59036016 -0.6825062 0.4308831
vn -0.67765594 0.045244996 0.73398596
vn -0.59968716 -0.3070781 0.7389712
vn -0.45790288 -0.6073668 0.64917684
vn -0.33161995 0.055080988 0.9418038
vn -0.29404512 -0.3014431 0.9070113
vn -0.22271499 -0.6452109 0.73082197
vn 0.010590001 0.054197002 0.99847406
vn -0.002071 -0.306187 0.9519691
vn -0.029350994 -0.6594389 0.7511849
vn 0.3387239 0.040383987 0.9400188
vn 0.28268597 -0.31223795 0.90697086
vn 0.16703098 -0.6560458 0.73600584
vn 0.67805177 0.015546994 0.73484975
vn 0.5887659 -0.32378298 0.7406209
vn 0.42126516 -0.62283826 0.65924823
vn 0.8912121 -0.010683002 0.45346108
vn 0.794793 -0.378368 0.474491
vn 0.5572799 -0.7024018 0.44279888
vn 0.9186681 0.39496607 -0.007131001
vn 0.6230278 0.6909418 -0.3666549
vn 0.89509517 -0.44579008 -0.008705002
vn 0.60944885 -0.79279274 -0.007196998
vn 0.99914455 -0.04046398 -0.008527996
vn 0.8261587 0.37445188 -0.42100784
vn 0.47252104 0.6590161 -0.58516806
vn 0.61561704 0.36936203 -0.69612306
vn 0.88845205 -0.010242001 -0.45885503
vn 0.67920935 0.015526008 -0.7337804
vn 0.7930446 -0.37604186 -0.4792418
vn 0.5560321 -0.7003662 -0.4475661
vn 0.59075713 -0.3228991 -0.7394202
vn 0.42364675 -0.6227217 -0.65783066
g default_0
f 3/3/3 2/2/2 1/1/1
f 4/4/4 3/3/3 1/1/1
f 4/4/4 1/1/1 5/5/5
f 6/6/6 3/3/3 4/4/4
f 7/7/7 4/4/4 5/5/5
f 7/7/7 5/5/5 8/8/8
f 9/9/9 6/6/6 4/4/4
f 9/9/9 4/4/4 7/7/7
f 10/10/10 6/6/6 9/9/9
f 11/11/11 7/7/7 8/8/8
f 11/11/11 8/8/8 12/12/12
f 13/13/13 9/9/9 7/7/7
f 13/13/13 7/7/7 11/11/11
f 14/14/14 10/10/10 9/9/9
f 14/14/14 9/9/9 13/13/13
f 15/15/15 10/10/10 14/14/14
f 16/16/16 15/15/15 14/14/14
f 16/16/16 14/14/14 17/17/17
f 17/17/17 14/14/14 13/13/13
f 18/18/18 16/16/16 17/17/17
f 19/19/19 11/11/11 12/12/12
f 19/19/19 12/12/12 20/20/20
f 21/21/21 13/13/13 11/11/11
f 17/17/17 13/13/13 21/21/21
f 21/21/21 11/11/11 19/19/19
f 18/18/18 17/17/17 22/22/22
f 22/22/22 17/17/17 21/21/21
f 23/23/23 18/18/18 22/22/22
f 24/24/24 19/19/19 20/20/20
f 24/24/24 20/20/20 25/25/25
f 26/26/26 21/21/21 19/19/19
f 22/22/22 21/21/21 26/26/26
f 26/26/26 19/19/19 24/24/24
f 23/23/23 22/22/22 27/27/27
f 27/27/27 22/22/22 26/26/26
f 28/28/28 23/23/23 27/27/27
f 29/29/29 24/24/24 25/25/25
f 29/29/29 25/25/25 30/30/30
f 31/31/31 26/26/26 24/24/24
f 27/27/27 26/26/26 31/31/31
f 31/31/31 24/24/24 29/29/29
f 28/28/28 27/27/27 32/32/32
f 32/32/32 27/27/27 31/31/31
f 33/33/33 28/28/28 32/32/32
f 34/34/34 29/29/29 30/30/30
f 34/34/34 30/30/30 35/35/35
f 36/36/36 31/31/31 29/29/29
f 32/32/32 31/31/31 36/36/36
f 36/36/36 29/29/29 34/34/34
f 33/33/33 32/32/32 37/37/37
f 37/37/37 32/32/32 36/36/36
f 38/38/38 33/33/33 37/37/37
f 39/39/39 34/34/34 35/35/35
f 39/39/39 35/35/35 40/40/40
f 41/41/41 36/36/36 34/34/34
f 37/37/37 36/36/36 41/41/41
f 41/41/41 34/34/34 39/39/39
f 38/38/38 37/37/37 42/42/42
f 42/42/42 37/37/37 41/41/41
f 43/43/43 38/38/38 42/42/42
f 44/44/44 39/39/39 40/40/40
f 44/44/44 40/40/40 45/45/45
f 46/46/46 41/41/41 39/39/39
f 42/42/42 41/41/41 46/46/46
f 46/46/46 39/39/39 44/44/44
f 43/43/43 42/42/42 47/47/47
f 47/47/47 42/42/42 46/46/46
f 48/48/48 43/43/43 47/47/47
f 49/49/49 44/44/44 45/45/45
f 49/49/49 45/45/45 50/50/50
f 51/51/51 46/46/46 44/44/44
f 47/47/47 46/46/46 51/51/51
f 51/51/51 44/44/44 49/49/49
f 48/48/48 47/47/47 52/52/52
f 52/52/52 47/47/47 51/51/51
f 53/53/53 48/48/48 52/52/52
f 54/54/54 49/49/49 50/50/50
f 54/54/54 50/50/50 55/55/55
f 56/56/56 51/51/51 49/49/49
f 52/52/52 51/51/51 56/56/56
f 56/56/56 49/49/49 54/54/54
f 53/53/53 52/52/52 57/57/57
f 57/57/57 52/52/52 56/56/56
f 58/58/58 53/53/53 57/57/57
f 59/59/59 56/56/56 54/54/54
f 57/57/57 56/56/56 59/59/59
f 58/58/58 57/57/57 60/60/60
f 60/60/60 57/57/57 59/59/59
f 61/61/61 58/58/58 60/60/60
f 59/59/59 54/54/54 62/62/62
f 62/62/62 54/54/54 55/55/55
f 60/60/60 59/59/59 63/63/63
f 63/63/63 59/59/59 62/62/62
f 61/61/61 60/60/60 64/64/64
f 64/64/64 60/60/60 63/63/63
f 65/65/65 61/61/61 64/64/64
f 62/62/62 55/55/55 66/66/66
f 63/63/63 62/62/62 67/67/67
f 67/67/67 62/62/62 66/66/66
f 64/64/64 63/63/63 68/68/68
f 68/68/68 63/63/63 67/67/67
f 65/65/65 64/64/64 69/69/69
f 69/69/69 64/64/64 68/68/68
f 66/66/66 55/55/55 70/70/70
f 55/55/55 71/71/71 70/70/70
f 72/72/72 65/65/65 69/69/69
f 73/73/73 65/65/65 72/72/72
f 70/70/70 71/71/71 74/74/74
f 71/71/71 75/75/75 74/74/74
f 76/76/76 73/73/73 72/72/72
f 77/77/77 73/73/73 76/76/76
f 74/74/74 75/75/75 78/78/78
f 75/75/75 79/79/79 78/78/78
f 78/78/78 79/79/79 80/80/80
f 79/79/79 81/81/81 80/80/80
f 78/78/78 80/80/80 82/82/82
f 83/83/83 78/78/78 82/82/82
f 74/74/74 78/78/78 83/83/83
f 83/83/83 82/82/82 84/84/84
f 70/70/70 74/74/74 85/85/85
f 85/85/85 74/74/74 83/83/83
f 86/86/86 83/83/83 84/84/84
f 85/85/85 83/83/83 86/86/86
f 86/86/86 84/84/84 87/87/87
f 88/88/88 86/86/86 87/87/87
f 89/89/89 86/86/86 88/88/88
f 89/89/89 85/85/85 86/86/86
f 90/90/90 89/89/89 88/88/88
f 91/91/91 70/70/70 85/85/85
f 91/91/91 85/85/85 89/89/89
f 66/66/66 70/70/70 91/91/91
f 92/92/92 89/89/89 90/90/90
f 92/92/92 91/91/91 89/89/89
f 93/93/93 92/92/92 90/90/90
f 94/94/94 66/66/66 91/91/91
f 94/94/94 91/91/91 92/92/92
f 67/67/67 66/66/66 94/94/94
f 95/95/95 92/92/92 93/93/93
f 95/95/95 94/94/94 92/92/92
f 96/96/96 95/95/95 93/93/93
f 97/97/97 67/67/67 94/94/94
f 97/97/97 94/94/94 95/95/95
f 68/68/68 67/67/67 97/97/97
f 98/98/98 95/95/95 96/96/96
f 98/98/98 97/97/97 95/95/95
f 99/99/99 98/98/98 96/96/96
f 100/100/100 68/68/68 97/97/97
f 100/100/100 97/97/97 98/98/98
f 69/69/69 68/68/68 100/100/100
f 101/101/101 98/98/98 99/99/99
f 101/101/101 100/100/100 98/98/98
f 102/102/102 101/101/101 99/99/99
f 103/103/103 69/69/69 100/100/100
f 103/103/103 100/100/100 101/101/101
f 72/72/72 69/69/69 103/103/103
f 104/104/104 101/101/101 102/102/102
f 104/104/104 103/103/103 101/101/101
f 105/105/105 104/104/104 102/102/102
f 106/106/106 72/72/72 103/103/103
f 106/106/106 103/103/103 104/104/104
f 76/76/76 72/72/72 106/106/106
f 107/107/107 104/104/104 105/105/105
f 107/107/107 106/106/106 104/104/104
f 108/108/108 107/107/107 105/105/105
f 109/109/109 76/76/76 106/106/106
f 109/109/109 106/106/106 107/107/107
f 110/110/110 107/107/107 108/108/108
f 110/110/110 109/109/109 107/107/107
f 111/111/111 110/110/110 108/108/108
f 112/112/112 76/76/76 109/109/109
f 112/112/112 77/77/77 76/76/76
f 113/113/113 77/77/77 112/112/112
f 114/114/114 110/110/110 111/111/111
f 115/115/115 114/114/114 111/111/111
f 116/116/116 109/109/109 110/110/110
f 116/116/116 112/112/112 109/109/109
f 114/114/114 116/116/116 110/110/110
f 117/117/117 113/113/113 112/112/112
f 117/117/117 112/112/112 116/116/116
f 118/118/118 113/113/113 117/117/117
f 119/119/119 118/118/118 117/117/117
f 120/120/120 117/117/117 116/116/116
f 119/119/119 117/117/117 120/120/120
f 120/120/120 116/116/116 114/114/114
f 121/121/121 119/119/119 120/120/120
f 122/122/122 114/114/114 115/115/115
f 122/122/122 120/120/120 114/114/114
f 121/121/121 120/120/120 122/122/122
f 123/123/123 122/122/122 115/115/115
f 124/124/124 121/121/121 122/122/122
f 124/124/124 122/122/122 123/123/123
f 125/125/125 124/124/124 123/123/123
