g Growth_Animation_VFX_Orb_mesh
v -0.42921883 0.1151002 0.27170935
v -0 0 0
v -0.47937286 0.1151002 -4.6287427E-09
v -0.78410405 0.47140986 0.5020534
v -0.87836736 0.47140986 0
v -1.1201348 1.0637231 0.65596426
v -1.272883 1.0637231 0
v -1.2732946 1.675069 0.6966076
v -1.4667327 1.6768676 0
v -1.4960243 2.0831442 0
v -0.52657217 0.47140986 0.86958206
v -0.7028189 1.0637231 1.1361636
v -0.74618244 1.6725042 1.2062644
v -1.2948759 2.0818431 0.6939006
v -0.29219535 0.1151002 0.47061446
v -0 0 0
v -1.226758 2.5649698 0.65596426
v -1.4169608 2.5649698 0
v -0.97236615 3.0949526 0.5020534
v -1.1289558 3.0949526 0
v -0.5776351 3.490723 0.27170935
v -0.68250793 3.490723 0
v -0 3.588146 0
v -0.29111713 3.490723 0.47061446
v -0 3.588146 0
v -0.5445552 3.0949526 0.86958206
v -0.70711386 2.5649698 1.1361636
v -0 3.490723 0.5434187
v -0 3.588146 0
v -0 3.0949526 1.0041068
v -0.74490726 2.0797608 1.2021545
v 0.29111713 3.490723 0.47061446
v -0 3.588146 0
v -0 2.5649698 1.3119285
v -0 1.6725416 1.3928791
v 0.5445552 3.0949526 0.86958206
v -0 2.0797799 1.3881253
v -0 1.0637231 1.3119285
v 0.5776351 3.490723 0.27170935
v -0 3.588146 0
v 0.70711386 2.5649698 1.1361636
v 0.74618286 1.6725105 1.2062652
v -0 0.47140986 1.0041068
v 0.97236615 3.0949526 0.5020534
v 0.7449078 2.0797544 1.2021552
v 0.7028189 1.0637231 1.1361636
v -0 0.1151002 0.5434187
v -0 0 0
v 0.68250793 3.490723 0
v -0 3.588146 0
v 1.1289558 3.0949526 0
v 1.226758 2.5649698 0.65596426
v 1.4169608 2.5649698 0
v 1.2948577 2.0819724 0.6938905
v 1.4960243 2.0831442 0
v 1.4667327 1.6768676 0
v 1.2732629 1.6749425 0.6965992
v 1.1201348 1.0637231 0.65596426
v 1.272883 1.0637231 0
v 0.52657217 0.47140986 0.86958206
v 0.78410405 0.47140986 0.5020534
v 0.87836736 0.47140986 0
v 0.29219535 0.1151002 0.47061446
v -0 0 0
v 0.42921883 0.1151002 0.27170935
v -0 0 0
v 0.47937286 0.1151002 -4.6287427E-09
v -0 0 0
vt 0.5 0.125
vt 0.45833334 0
vt 0.4166667 0.125
vt 0.5 0.25
vt 0.4166667 0.25
vt 0.5 0.375
vt 0.4166667 0.375
vt 0.5 0.46900067
vt 0.41666672 0.46927726
vt 0.4166667 0.53749627
vt 0.5833333 0.25
vt 0.5833333 0.375
vt 0.5833333 0.46860635
vt 0.5 0.53726006
vt 0.5833333 0.125
vt 0.5416667 0
vt 0.5 0.625
vt 0.4166667 0.625
vt 0.5 0.75
vt 0.4166667 0.75
vt 0.5 0.875
vt 0.4166667 0.875
vt 0.45833334 1
vt 0.5833333 0.875
vt 0.5416667 1
vt 0.5833333 0.75
vt 0.5833333 0.625
vt 0.6666666 0.875
vt 0.62500006 1
vt 0.6666666 0.75
vt 0.5833333 0.5368818
vt 0.74999994 0.875
vt 0.7083334 1
vt 0.6666666 0.625
vt 0.6666666 0.46861207
vt 0.74999994 0.75
vt 0.6666666 0.5368853
vt 0.6666666 0.375
vt 0.83333325 0.875
vt 0.7916667 1
vt 0.74999994 0.625
vt 0.74999994 0.46860734
vt 0.6666666 0.25
vt 0.83333325 0.75
vt 0.74999994 0.5368807
vt 0.74999994 0.375
vt 0.6666666 0.125
vt 0.62500006 0
vt 0.91666657 0.875
vt 0.87500006 1
vt 0.91666657 0.75
vt 0.83333325 0.625
vt 0.91666657 0.625
vt 0.83333325 0.5372834
vt 0.91666657 0.53749627
vt 0.91666657 0.46927726
vt 0.8333332 0.46898124
vt 0.83333325 0.375
vt 0.91666657 0.375
vt 0.74999994 0.25
vt 0.83333325 0.25
vt 0.91666657 0.25
vt 0.74999994 0.125
vt 0.7083334 0
vt 0.83333325 0.125
vt 0.7916667 0
vt 0.91666657 0.125
vt 0.87500006 0
vn -0.5371791 -0.81755865 0.20745216
vn -0 -0.9911361 0.13285033
vn -0.58426195 -0.8042193 0.10894651
vn -0.7297089 -0.60005397 0.32781112
vn -0.7835094 -0.59995073 0.16177806
vn -0.82690376 -0.36641088 0.4265832
vn -0.89418846 -0.39400372 0.21257496
vn -0.8587126 -0.15256964 0.48921898
vn -0.94941324 -0.18481684 0.2538844
vn -0.95967376 0.055986416 0.27548465
vn -0.42196262 -0.5882154 0.68989146
vn -0.48021185 -0.3084211 0.8211413
vn -0.48394924 -0.09206619 0.87023956
vn -0.8500638 0.068440475 0.52221394
vn -0.29616076 -0.83985627 0.45489588
vn -0 -0.9911361 0.13285033
vn -0.7975478 0.3277803 0.5064361
vn -0.91140807 0.31202525 0.2682828
vn -0.66794246 0.5955272 0.44631857
vn -0.78492844 0.5697068 0.24355993
vn -0.44749236 0.82831126 0.33712167
vn -0.55145615 0.8127988 0.18776108
vn -0 0.99173075 0.12833641
vn -0.24464254 0.82678574 0.5065326
vn -0 0.99173075 0.12833641
vn -0.36744648 0.6009792 0.70979375
vn -0.44408396 0.3308583 0.8326597
vn -0 0.820355 0.57185465
vn -0 0.99173075 0.12833641
vn -0 0.59995943 0.80003035
vn -0.47251502 0.08331236 0.87737596
vn 0.24464254 0.82678574 0.5065326
vn -0 0.99173075 0.12833641
vn 4.6198025E-07 0.33095628 0.9436461
vn -5.482004E-07 -0.073302105 0.9973098
vn 0.36744648 0.6009791 0.70979375
vn -6.331552E-07 0.0878476 0.9961339
vn 3.4470594E-07 -0.28738055 0.9578164
vn 0.4474923 0.82831126 0.33712184
vn -0 0.99173075 0.12833641
vn 0.4440751 0.3308635 0.8326623
vn 0.4839583 -0.09205422 0.87023586
vn -0 -0.57962704 0.81488186
vn 0.66794246 0.5955272 0.4463186
vn 0.47252938 0.083297566 0.8773696
vn 0.48020503 -0.30842325 0.82114446
vn -0 -0.8425889 0.5385572
vn -0 -0.9911361 0.13285033
vn 0.55145615 0.81279874 0.18776143
vn -0 0.99173075 0.12833641
vn 0.78492844 0.5697068 0.24356006
vn 0.79754394 0.32779172 0.5064348
vn 0.9114045 0.3120362 0.26828206
vn 0.8500652 0.068429455 0.5222133
vn 0.9596712 0.05595154 0.2755007
vn 0.9494146 -0.18478285 0.25390363
vn 0.8587134 -0.15256089 0.48922032
vn 0.826903 -0.366418 0.4265787
vn 0.8941855 -0.39401183 0.21257219
vn 0.42196262 -0.5882155 0.6898914
vn 0.72970897 -0.6000539 0.32781112
vn 0.7835094 -0.5999508 0.16177806
vn 0.2961608 -0.83985627 0.45489594
vn -0 -0.9911361 0.13285033
vn 0.5371791 -0.81755865 0.20745216
vn -0 -0.9911361 0.13285033
vn 0.5842619 -0.8042193 0.10894651
vn -0 -0.9911361 0.13285033
g Growth_Animation_VFX_Orb_mesh_0
f 3/3/3 2/2/2 1/1/1
f 1/1/1 4/4/4 3/3/3
f 4/4/4 5/5/5 3/3/3
f 4/4/4 6/6/6 5/5/5
f 6/6/6 7/7/7 5/5/5
f 6/6/6 8/8/8 7/7/7
f 8/8/8 9/9/9 7/7/7
f 9/9/9 8/8/8 10/10/10
f 11/11/11 4/4/4 1/1/1
f 12/12/12 6/6/6 4/4/4
f 11/11/11 12/12/12 4/4/4
f 13/13/13 8/8/8 6/6/6
f 12/12/12 13/13/13 6/6/6
f 8/8/8 14/14/14 10/10/10
f 8/8/8 13/13/13 14/14/14
f 15/15/15 11/11/11 1/1/1
f 1/1/1 16/16/16 15/15/15
f 14/14/14 17/17/17 10/10/10
f 17/17/17 18/18/18 10/10/10
f 17/17/17 19/19/19 18/18/18
f 19/19/19 20/20/20 18/18/18
f 19/19/19 21/21/21 20/20/20
f 21/21/21 22/22/22 20/20/20
f 21/21/21 23/23/23 22/22/22
f 24/24/24 21/21/21 19/19/19
f 24/24/24 25/25/25 21/21/21
f 26/26/26 19/19/19 17/17/17
f 26/26/26 24/24/24 19/19/19
f 27/27/27 17/17/17 14/14/14
f 27/27/27 26/26/26 17/17/17
f 28/28/28 24/24/24 26/26/26
f 28/28/28 29/29/29 24/24/24
f 30/30/30 28/28/28 26/26/26
f 30/30/30 26/26/26 27/27/27
f 31/31/31 27/27/27 14/14/14
f 13/13/13 31/31/31 14/14/14
f 32/32/32 28/28/28 30/30/30
f 32/32/32 33/33/33 28/28/28
f 34/34/34 30/30/30 27/27/27
f 34/34/34 27/27/27 31/31/31
f 13/13/13 35/35/35 31/31/31
f 35/35/35 13/13/13 12/12/12
f 36/36/36 32/32/32 30/30/30
f 36/36/36 30/30/30 34/34/34
f 37/37/37 34/34/34 31/31/31
f 35/35/35 37/37/37 31/31/31
f 38/38/38 35/35/35 12/12/12
f 38/38/38 12/12/12 11/11/11
f 39/39/39 32/32/32 36/36/36
f 39/39/39 40/40/40 32/32/32
f 41/41/41 36/36/36 34/34/34
f 41/41/41 34/34/34 37/37/37
f 35/35/35 42/42/42 37/37/37
f 42/42/42 35/35/35 38/38/38
f 43/43/43 38/38/38 11/11/11
f 43/43/43 11/11/11 15/15/15
f 44/44/44 39/39/39 36/36/36
f 44/44/44 36/36/36 41/41/41
f 45/45/45 41/41/41 37/37/37
f 42/42/42 45/45/45 37/37/37
f 46/46/46 42/42/42 38/38/38
f 46/46/46 38/38/38 43/43/43
f 47/47/47 43/43/43 15/15/15
f 15/15/15 48/48/48 47/47/47
f 49/49/49 39/39/39 44/44/44
f 49/49/49 50/50/50 39/39/39
f 51/51/51 49/49/49 44/44/44
f 52/52/52 44/44/44 41/41/41
f 51/51/51 44/44/44 52/52/52
f 52/52/52 41/41/41 45/45/45
f 53/53/53 51/51/51 52/52/52
f 53/53/53 52/52/52 54/54/54
f 54/54/54 52/52/52 45/45/45
f 55/55/55 53/53/53 54/54/54
f 56/56/56 55/55/55 54/54/54
f 57/57/57 54/54/54 45/45/45
f 57/57/57 56/56/56 54/54/54
f 42/42/42 57/57/57 45/45/45
f 57/57/57 42/42/42 46/46/46
f 56/56/56 57/57/57 58/58/58
f 58/58/58 57/57/57 46/46/46
f 59/59/59 56/56/56 58/58/58
f 58/58/58 46/46/46 60/60/60
f 60/60/60 46/46/46 43/43/43
f 60/60/60 43/43/43 47/47/47
f 59/59/59 58/58/58 61/61/61
f 61/61/61 58/58/58 60/60/60
f 62/62/62 59/59/59 61/61/61
f 63/63/63 60/60/60 47/47/47
f 61/61/61 60/60/60 63/63/63
f 47/47/47 64/64/64 63/63/63
f 62/62/62 61/61/61 65/65/65
f 65/65/65 61/61/61 63/63/63
f 63/63/63 66/66/66 65/65/65
f 67/67/67 62/62/62 65/65/65
f 65/65/65 68/68/68 67/67/67
