g MSH_Leaf1
v -0.0027398756 -0.031210588 -0.11836173
v -0.0015070118 -0.005360025 -0.0768255
v 0.049028266 0.0077108904 -0.08008058
v -0.05291941 0.0077108904 -0.07696769
v -0.06537103 0.031210588 -0.024842909
v -0.001965154 0.008026688 -0.020443486
v 0.06537103 0.031210588 -0.022508238
v -0.055254076 0.028530207 0.04102316
v -0.0025377998 0.008606195 0.03668104
v 0.045137137 0.026869774 0.041261304
v -0.025590662 0.0018017453 0.09042217
v -0.0032143965 -0.009326184 0.08443125
v 0.0223059 0.0018017453 0.091200404
v -0.0025340428 -0.031210588 0.118361734
v -0.0027398756 -0.031210588 -0.11836173
v 0.049028266 0.0077108904 -0.08008058
v -0.0015070118 0.0013208091 -0.07976922
v -0.05291941 0.0077108904 -0.07696769
v -0.06537103 0.031210588 -0.024842909
v -0.001965154 0.01668719 -0.021440655
v 0.06537103 0.031210588 -0.022508238
v -0.055254076 0.028530207 0.04102316
v -0.0025377998 0.01763396 0.039624766
v 0.045137137 0.026869774 0.041261304
v -0.025590662 0.0018017453 0.09042217
v -0.0032143965 -0.0057807253 0.08756701
v 0.0223059 0.0018017453 0.091200404
v -0.0025340428 -0.031210588 0.118361734
vt 0.4940477 1
vt 0.48847347 0.76588297
vt 0.875 0.87959874
vt 0.09523809 0.86622083
vt 0 0.59531784
vt 0.48496932 0.6187079
vt 1.0000001 0.58528435
vt 0.077381015 0.34113717
vt 0.48058933 0.43474936
vt 0.8452382 0.32441485
vt 0.3042661 0.15089208
vt 0.47541428 0.21739733
vt 0.6706101 0.14754754
vt 0.47023815 1.1920929E-07
vt 0.4940477 1
vt 0.875 0.87959874
vt 0.48847347 0.76588297
vt 0.09523809 0.86622083
vt 0 0.59531784
vt 0.48496932 0.6187079
vt 1.0000001 0.58528435
vt 0.077381015 0.34113717
vt 0.48058933 0.43474936
vt 0.8452382 0.32441485
vt 0.3042661 0.15089208
vt 0.47541428 0.21739733
vt 0.6706101 0.14754754
vt 0.47023815 1.1920929E-07
vn 0.015135461 -0.8491077 0.528003
vn 0.01588983 -0.93590343 0.35189813
vn 0.2901756 -0.9129275 0.28698674
vn -0.2897899 -0.90671355 0.30641866
vn -0.32851547 -0.934921 0.13416466
vn -0.0012642115 -0.98902726 0.14772724
vn 0.31878942 -0.9369261 0.14332749
vn -0.364708 -0.92878234 -0.06596564
vn -0.00898181 -0.99521047 -0.09734278
vn 0.35719782 -0.93234396 -0.05607497
vn -0.41012204 -0.8606943 -0.3016706
vn -0.0067515187 -0.9340886 -0.35697734
vn 0.40349653 -0.8593378 -0.3142119
vn 0.0393077 -0.83935827 -0.54215544
vn -0.019107344 0.76475555 -0.6440372
vn -0.16327569 0.92720467 -0.33709416
vn -0.012580781 0.91218585 -0.40958357
vn 0.15890592 0.9211292 -0.35534447
vn 0.19676834 0.96933866 -0.14718999
vn 0.0021530057 0.9882862 -0.15259637
vn -0.18830404 0.97038525 -0.15130825
vn 0.22402106 0.96985346 0.09591008
vn 0.008379117 0.989758 0.14250888
vn -0.21338798 0.97239214 0.0944406
vn 0.24954888 0.87832576 0.40776125
vn 0.004407091 0.8934098 0.44922096
vn -0.24188517 0.87798935 0.41306925
vn -0.03194831 0.7703353 0.6368382
g MSH_Leaf1_0
f 3/3/3 2/2/2 1/1/1
f 2/2/2 4/4/4 1/1/1
f 5/5/5 4/4/4 2/2/2
f 6/6/6 2/2/2 3/3/3
f 6/6/6 5/5/5 2/2/2
f 7/7/7 6/6/6 3/3/3
f 8/8/8 5/5/5 6/6/6
f 9/9/9 6/6/6 7/7/7
f 9/9/9 8/8/8 6/6/6
f 10/10/10 9/9/9 7/7/7
f 11/11/11 8/8/8 9/9/9
f 12/12/12 9/9/9 10/10/10
f 12/12/12 11/11/11 9/9/9
f 13/13/13 12/12/12 10/10/10
f 14/14/14 11/11/11 12/12/12
f 14/14/14 12/12/12 13/13/13
f 17/17/17 16/16/16 15/15/15
f 18/18/18 17/17/17 15/15/15
f 18/18/18 19/19/19 17/17/17
f 17/17/17 20/20/20 16/16/16
f 19/19/19 20/20/20 17/17/17
f 20/20/20 21/21/21 16/16/16
f 19/19/19 22/22/22 20/20/20
f 20/20/20 23/23/23 21/21/21
f 22/22/22 23/23/23 20/20/20
f 23/23/23 24/24/24 21/21/21
f 22/22/22 25/25/25 23/23/23
f 23/23/23 26/26/26 24/24/24
f 25/25/25 26/26/26 23/23/23
f 26/26/26 27/27/27 24/24/24
f 25/25/25 28/28/28 26/26/26
f 26/26/26 28/28/28 27/27/27
