g MSH_Foliage2
v -8.9406965E-10 -6.2741734E-10 3.6507843E-09
v 0.0011983506 0.01885234 0.029781703
v 0.031719387 0.028367633 0.027110538
v -0.029283384 0.028120108 0.029868646
v -0.036345515 0.04530992 0.06736132
v 0.0010874295 0.028824296 0.07033565
v 0.041873354 0.045665845 0.06838272
v -0.030491967 0.043808784 0.11478176
v 0.00063364167 0.029587159 0.111494176
v 0.02953695 0.042878143 0.114454925
v -0.013420174 0.024958786 0.15036835
v -0.0002563158 0.016975582 0.14599872
v 0.015235024 0.025088714 0.15068701
v -0.0003886776 0.0014404821 0.17056043
v -8.9406965E-10 -6.2741734E-10 3.6507843E-09
v 0.031719387 0.028367633 0.027110538
v 0.001346995 0.023640526 0.027624711
v -0.029283384 0.028120108 0.029868646
v -0.036345515 0.04530992 0.06736132
v 0.0012740254 0.03504845 0.069570504
v 0.041873354 0.045665845 0.06838272
v -0.030491967 0.043808784 0.11478176
v 0.0008195319 0.036099486 0.11356649
v 0.02953695 0.042878143 0.114454925
v -0.013420174 0.024958786 0.15036835
v -0.00018758449 0.019545207 0.14823894
v 0.015235024 0.025088714 0.15068701
v -0.0003886776 0.0014404821 0.17056043
vt 0.4940477 1
vt 0.48847347 0.76588297
vt 0.875 0.87959874
vt 0.09523809 0.86622083
vt 0 0.59531784
vt 0.48496932 0.6187079
vt 1.0000001 0.58528435
vt 0.077381015 0.34113717
vt 0.48058933 0.43474936
vt 0.8452382 0.32441485
vt 0.3042661 0.15089208
vt 0.47541428 0.21739733
vt 0.6706101 0.14754754
vt 0.47023815 1.1920929E-07
vt 0.4940477 1
vt 0.875 0.87959874
vt 0.48847347 0.76588297
vt 0.09523809 0.86622083
vt 0 0.59531784
vt 0.48496932 0.6187079
vt 1.0000001 0.58528435
vt 0.077381015 0.34113717
vt 0.48058933 0.43474936
vt 0.8452382 0.32441485
vt 0.3042661 0.15089208
vt 0.47541428 0.21739733
vt 0.6706101 0.14754754
vt 0.47023815 1.1920929E-07
vn 0.028650602 -0.84511346 0.53381884
vn 0.027388223 -0.93268114 0.35966063
vn 0.34436023 -0.89311075 0.28942892
vn -0.3383522 -0.8873264 0.31332052
vn -0.38546103 -0.9121709 0.13915473
vn 0.0048423153 -0.98778474 0.15574913
vn 0.37555954 -0.9150939 0.14682695
vn -0.42959574 -0.90070134 -0.06468909
vn -0.006765182 -0.99605274 -0.08850537
vn 0.41690835 -0.90766174 -0.048349407
vn -0.48169404 -0.82667816 -0.29081655
vn -0.009147282 -0.93720835 -0.34864992
vn 0.46495944 -0.8355916 -0.29257372
vn 0.043060277 -0.844461 -0.5338832
vn -0.031747088 0.76015115 -0.6489702
vn -0.19986913 0.9171568 -0.34478334
vn -0.023458099 0.90829456 -0.41767284
vn 0.18254866 0.9122138 -0.36679956
vn 0.23086646 0.9606251 -0.15459663
vn -0.00362113 0.98701197 -0.16060548
vn -0.22841717 0.9607799 -0.15724975
vn 0.2661137 0.9591503 0.09598961
vn 0.0064085787 0.9909286 0.13423666
vn -0.2558828 0.962745 0.08744166
vn 0.2990693 0.86602175 0.4007041
vn 0.006500753 0.8970496 0.44188198
vn -0.28622863 0.8717608 0.3976259
vn -0.0337207 0.7763569 0.62939095
g MSH_Foliage2_0
f 3/3/3 2/2/2 1/1/1
f 2/2/2 4/4/4 1/1/1
f 5/5/5 4/4/4 2/2/2
f 6/6/6 2/2/2 3/3/3
f 6/6/6 5/5/5 2/2/2
f 7/7/7 6/6/6 3/3/3
f 8/8/8 5/5/5 6/6/6
f 9/9/9 6/6/6 7/7/7
f 9/9/9 8/8/8 6/6/6
f 10/10/10 9/9/9 7/7/7
f 11/11/11 8/8/8 9/9/9
f 12/12/12 9/9/9 10/10/10
f 12/12/12 11/11/11 9/9/9
f 13/13/13 12/12/12 10/10/10
f 14/14/14 11/11/11 12/12/12
f 14/14/14 12/12/12 13/13/13
f 17/17/17 16/16/16 15/15/15
f 18/18/18 17/17/17 15/15/15
f 18/18/18 19/19/19 17/17/17
f 17/17/17 20/20/20 16/16/16
f 19/19/19 20/20/20 17/17/17
f 20/20/20 21/21/21 16/16/16
f 19/19/19 22/22/22 20/20/20
f 20/20/20 23/23/23 21/21/21
f 22/22/22 23/23/23 20/20/20
f 23/23/23 24/24/24 21/21/21
f 22/22/22 25/25/25 23/23/23
f 23/23/23 26/26/26 24/24/24
f 25/25/25 26/26/26 23/23/23
f 26/26/26 27/27/27 24/24/24
f 25/25/25 28/28/28 26/26/26
f 26/26/26 28/28/28 27/27/27
