g MSH_Egg_Inside_VFX
v -0.025304489 0.15046416 0.23153584
v -0.042049084 0.18748012 0.21479116
v 0.006382217 0.18748017 0.15197158
v 0.026902407 0.15046413 0.16381894
v -0.014046859 0.110968776 0.24279338
v 0.036569882 0.18748017 0.07861902
v 0.04069845 0.110968776 0.17178406
v -0.008207969 0.07177097 0.24863225
v 0.059443492 0.15046416 0.08474799
v 0.04710291 0.18748017 -2.0851554E-17
v 0.04785385 0.0717709 0.1759152
v -0.009433975 0.024043692 0.24740635
v 0.07482166 0.11096881 0.08886856
v 0.070797615 0.15046409 -2.310432E-18
v 0.03656992 0.18748017 -0.07861902
v 0.046350937 0.02404209 0.17504755
v -0.018273124 -0.022340316 0.23856725
v 0.082797736 0.071770936 0.09100571
v 0.08672783 0.110968776 9.6476E-18
v 0.05944351 0.15046416 -0.08474799
v 0.006382198 0.18748017 -0.15197158
v 0.03551872 -0.022342034 0.16879362
v -0.037203465 -0.07694092 0.21963675
v 0.08112305 0.024043616 0.090557
v 0.09499012 0.071770854 9.1887375E-18
v 0.074821696 0.11096874 -0.08886856
v 0.026902447 0.15046409 -0.16381894
v -0.04204912 0.18748017 -0.21479116
v -0.02530445 0.15046416 -0.23153584
v 0.040698413 0.11096881 -0.17178406
v -0.014046897 0.110968776 -0.24279338
v 0.0827977 0.071770936 -0.09100571
v 0.04785383 0.071770936 -0.17591521
v -0.008208046 0.071770936 -0.24863225
v 0.093254775 0.024042053 -3.1403056E-19
v 0.046350993 0.02404209 -0.17504756
v -0.009433956 0.024043655 -0.24740635
v 0.081123084 0.024043616 -0.090557
v 0.069048576 -0.022340335 0.08732168
v 0.035518836 -0.022342052 -0.16879362
v -0.018273048 -0.022340335 -0.23856725
v -0.03720352 -0.076940976 -0.21963675
v 0.08074699 -0.022342052 -1.0906642E-17
v 0.06904869 -0.022340354 -0.08732168
v 0.012320404 -0.07694094 -0.1554
v -0.063624725 -0.13480137 -0.1932156
v 0.043189183 -0.076940894 0.080392644
v 0.043189183 -0.076940894 -0.080392644
v -0.02005951 -0.13480328 -0.13670544
v -0.0949901 -0.18748008 -0.16185018
v -0.05849592 -0.1874801 -0.114514165
v 0.007097225 -0.13480133 -0.07072183
v -0.035748746 -0.18748008 -0.0592413
v 0.016570644 -0.13480325 8.057374E-18
v -0.027811907 -0.18748012 2.7731793E-18
v 0.05395975 -0.07694092 8.828671E-19
v 0.007097225 -0.13480134 0.07072183
v -0.035748746 -0.1874801 0.0592413
v -0.02005951 -0.13480328 0.13670544
v -0.05849592 -0.18748012 0.114514165
v 0.012320423 -0.076940954 0.1554
v -0.06362465 -0.13480131 0.1932156
v -0.0949901 -0.18748006 0.16185018
vt 5.9604645E-08 0.8870288
vt 5.9604645E-08 1
vt 0.17433769 1
vt 0.07813826 0.88841796
vt -2.9802322E-08 0.78430045
vt 0.33459294 1
vt 0.07586536 0.77472943
vt -2.9802322E-08 0.68836105
vt 0.28924417 0.89089155
vt 0.4980244 1
vt 0.07474738 0.6719744
vt -2.9802322E-08 0.58023167
vt 0.2887923 0.77936095
vt 0.50096774 0.8915361
vt 0.6616894 1
vt 0.07409766 0.5522673
vt -2.9802322E-08 0.4722008
vt 0.28847772 0.67861843
vt 0.5013815 0.78069943
vt 0.71341646 0.8909149
vt 0.82791805 1
vt 0.07386309 0.43172586
vt -2.9802322E-08 0.33206123
vt 0.28827143 0.5607043
vt 0.50164515 0.68060803
vt 0.7146387 0.7793802
vt 0.9283811 0.8884247
vt 1 1
vt 1 0.8870288
vt 0.9297935 0.77472854
vt 1 0.78430045
vt 0.7153792 0.678633
vt 0.93059295 0.6719738
vt 1 0.68836105
vt 0.5018422 0.56332576
vt 0.93110096 0.5522454
vt 1 0.5802316
vt 0.71586347 0.56067866
vt 0.2881611 0.4412957
vt 0.931286 0.43172643
vt 1 0.47220087
vt 1 0.33206126
vt 0.50191164 0.44435722
vt 0.7160397 0.44128612
vt 0.9310715 0.27428907
vt 1 0.16991243
vt 0.2882531 0.2841189
vt 0.71582925 0.2841422
vt 0.9298244 0.08477762
vt 1 -2.9802322E-08
vt 0.82791793 -2.9802322E-08
vt 0.7146556 0.09191072
vt 0.6616894 2.9802322E-08
vt 0.5014163 0.09420374
vt 0.4980244 -2.9802322E-08
vt 0.5018276 0.28730273
vt 0.28876448 0.09187403
vt 0.33459294 -2.9802322E-08
vt 0.0759083 0.084721655
vt 0.17433769 -2.9802322E-08
vt 0.074160844 0.27425283
vt -2.9802322E-08 0.16991243
vt 2.9802322E-08 -2.9802322E-08
vn 0.6300229 0.4540289 0.6300229
vn 0.5647249 0.60180694 0.5647249
vn 0.69157106 0.60191905 0.39927807
vn 0.7715712 0.4541331 0.4454671
vn 0.67667764 0.29019782 0.67667764
vn 0.7714292 0.60180604 0.20670405
vn 0.82873476 0.29028493 0.47846982
vn 0.7051979 0.073419996 0.70519894
vn 0.8606271 0.45402905 0.23060504
vn 0.79855704 0.60191905 0
vn 0.8636872 0.07343302 0.4986502
vn 0.69942343 -0.1470161 0.69942343
vn 0.9243588 0.29019794 0.24768095
vn 0.89093393 0.45413303 0
vn 0.7714287 0.60180676 -0.2067039
vn 0.8566103 -0.14705507 0.49456418
vn 0.6604467 -0.35723978 0.6604467
vn 0.963319 0.07342 0.25812
vn 0.9569405 0.29028416 0
vn 0.8606273 0.45402914 -0.23060408
vn 0.69157076 0.6019188 -0.39927885
vn 0.80884725 -0.35733512 0.46698812
vn 0.61613196 -0.49067593 0.61613196
vn 0.95543003 -0.14701602 0.25600702
vn 0.9973002 0.07343301 0
vn 0.92435914 0.29019704 -0.24768104
vn 0.7715712 0.4541331 -0.4454671
vn 0.5647252 0.6018063 -0.5647252
vn 0.6300229 0.4540289 -0.6300229
vn 0.82873476 0.29028493 -0.47846982
vn 0.67667776 0.2901969 -0.67667776
vn 0.9633189 0.073420994 -0.25811997
vn 0.86368716 0.07343402 -0.49865016
vn 0.70519835 0.07342104 -0.70519835
vn 0.98912853 -0.14705408 0
vn 0.85660994 -0.14705399 -0.49456495
vn 0.699424 -0.147015 -0.699423
vn 0.95543027 -0.14701506 -0.25600708
vn 0.9021868 -0.3572399 0.24174096
vn 0.8088469 -0.35733598 -0.46698797
vn 0.6604467 -0.35723978 -0.6604467
vn 0.61613166 -0.4906767 -0.61613166
vn 0.9339759 -0.35733595 0
vn 0.90218705 -0.35724002 -0.24174002
vn 0.7545311 -0.490826 -0.43562904
vn 0.571859 -0.588178 -0.57186
vn 0.84165186 -0.49067593 0.22551996
vn 0.84165114 -0.49067706 -0.22552004
vn 0.70029056 -0.58832264 -0.4043138
vn 0.51792693 -0.68081087 -0.51792693
vn 0.63422 -0.680945 -0.366168
vn 0.7811748 -0.58817786 -0.20931494
vn 0.707501 -0.680811 -0.189575
vn 0.80862606 -0.588323 0
vn 0.7323348 -0.6809448 0
vn 0.8712577 -0.49082586 0
vn 0.7811748 -0.58817786 0.20931494
vn 0.707501 -0.680811 0.189575
vn 0.7002908 -0.5883229 0.40431288
vn 0.63422 -0.680945 0.366168
vn 0.75453144 -0.49082527 0.43562925
vn 0.571859 -0.588178 0.57186
vn 0.51792616 -0.6808113 0.5179272
g MSH_Egg_Inside_VFX_0
f 3/3/3 2/2/2 1/1/1
f 4/4/4 3/3/3 1/1/1
f 4/4/4 1/1/1 5/5/5
f 6/6/6 3/3/3 4/4/4
f 7/7/7 4/4/4 5/5/5
f 7/7/7 5/5/5 8/8/8
f 9/9/9 6/6/6 4/4/4
f 9/9/9 4/4/4 7/7/7
f 10/10/10 6/6/6 9/9/9
f 11/11/11 7/7/7 8/8/8
f 8/8/8 12/12/12 11/11/11
f 13/13/13 9/9/9 7/7/7
f 13/13/13 7/7/7 11/11/11
f 14/14/14 10/10/10 9/9/9
f 14/14/14 9/9/9 13/13/13
f 15/15/15 10/10/10 14/14/14
f 12/12/12 16/16/16 11/11/11
f 12/12/12 17/17/17 16/16/16
f 18/18/18 13/13/13 11/11/11
f 11/11/11 16/16/16 18/18/18
f 19/19/19 14/14/14 13/13/13
f 19/19/19 13/13/13 18/18/18
f 20/20/20 15/15/15 14/14/14
f 20/20/20 14/14/14 19/19/19
f 21/21/21 15/15/15 20/20/20
f 17/17/17 22/22/22 16/16/16
f 17/17/17 23/23/23 22/22/22
f 16/16/16 24/24/24 18/18/18
f 16/16/16 22/22/22 24/24/24
f 25/25/25 19/19/19 18/18/18
f 18/18/18 24/24/24 25/25/25
f 26/26/26 20/20/20 19/19/19
f 26/26/26 19/19/19 25/25/25
f 27/27/27 21/21/21 20/20/20
f 27/27/27 20/20/20 26/26/26
f 28/28/28 21/21/21 27/27/27
f 29/29/29 28/28/28 27/27/27
f 29/29/29 27/27/27 30/30/30
f 30/30/30 27/27/27 26/26/26
f 31/31/31 29/29/29 30/30/30
f 32/32/32 26/26/26 25/25/25
f 30/30/30 26/26/26 32/32/32
f 31/31/31 30/30/30 33/33/33
f 33/33/33 30/30/30 32/32/32
f 34/34/34 31/31/31 33/33/33
f 24/24/24 35/35/35 25/25/25
f 32/32/32 25/25/25 35/35/35
f 33/33/33 36/36/36 34/34/34
f 36/36/36 37/37/37 34/34/34
f 33/33/33 32/32/32 38/38/38
f 38/38/38 32/32/32 35/35/35
f 36/36/36 33/33/33 38/38/38
f 24/24/24 39/39/39 35/35/35
f 22/22/22 39/39/39 24/24/24
f 36/36/36 40/40/40 37/37/37
f 40/40/40 41/41/41 37/37/37
f 41/41/41 40/40/40 42/42/42
f 35/35/35 43/43/43 38/38/38
f 39/39/39 43/43/43 35/35/35
f 38/38/38 44/44/44 36/36/36
f 44/44/44 40/40/40 36/36/36
f 43/43/43 44/44/44 38/38/38
f 40/40/40 45/45/45 42/42/42
f 40/40/40 44/44/44 45/45/45
f 46/46/46 42/42/42 45/45/45
f 39/39/39 22/22/22 47/47/47
f 39/39/39 47/47/47 43/43/43
f 44/44/44 43/43/43 48/48/48
f 44/44/44 48/48/48 45/45/45
f 49/49/49 46/46/46 45/45/45
f 46/46/46 49/49/49 50/50/50
f 49/49/49 51/51/51 50/50/50
f 49/49/49 45/45/45 52/52/52
f 49/49/49 52/52/52 51/51/51
f 45/45/45 48/48/48 52/52/52
f 52/52/52 53/53/53 51/51/51
f 52/52/52 54/54/54 53/53/53
f 52/52/52 48/48/48 54/54/54
f 54/54/54 55/55/55 53/53/53
f 43/43/43 56/56/56 48/48/48
f 48/48/48 56/56/56 54/54/54
f 47/47/47 56/56/56 43/43/43
f 54/54/54 57/57/57 55/55/55
f 54/54/54 56/56/56 57/57/57
f 56/56/56 47/47/47 57/57/57
f 57/57/57 58/58/58 55/55/55
f 57/57/57 59/59/59 58/58/58
f 57/57/57 47/47/47 59/59/59
f 59/59/59 60/60/60 58/58/58
f 47/47/47 61/61/61 59/59/59
f 22/22/22 61/61/61 47/47/47
f 23/23/23 61/61/61 22/22/22
f 61/61/61 23/23/23 62/62/62
f 59/59/59 61/61/61 62/62/62
f 59/59/59 62/62/62 60/60/60
f 62/62/62 63/63/63 60/60/60
