g MSH_Grass1
v 0.0025208904 0.00276042 0.004434578
v -0 0 0
v -0 0.009493924 0.019993497
v 0.0036872798 0.0059868013 0.009295165
v -0.0025208902 0.00276042 0.004434578
v -0.003687279 0.0059868013 0.009295166
v -0.0050810766 0.011973602 0.018590331
v 0.0050810766 0.011973602 0.018590331
v -0.0059023714 0.024060518 0.041227773
v -0 0.020661807 0.04225168
v 0.0059023737 0.024060518 0.041227773
v -0.0057304525 0.03419522 0.06631015
v -0 0.030508256 0.06719392
v 0.0057304525 0.03419522 0.06631015
v -0.005378151 0.040085793 0.09360814
v -0 0.036696546 0.09384118
v 0.005378151 0.040085793 0.09360814
v -0.004570398 0.040688302 0.12211569
v -0 0.037304934 0.12132919
v 0.004570398 0.040688302 0.12211569
v -0.0032633971 0.034931533 0.15079036
v -0 0.031994045 0.14957541
v 0.0032634067 0.034931533 0.15079038
v -0.0016656303 0.02173308 0.1785946
v -0 0.018842695 0.17678328
v 0.0016656303 0.02173308 0.1785946
v -0 -3.0621886E-06 0.20447856
v -0 0.015529456 0.017448649
v 0.0050810766 0.011973602 0.018590331
v 0.0059023737 0.024060518 0.041227773
v 0.0036872798 0.0059868013 0.009295165
v 0.0025208904 0.00276042 0.004434578
v -0 0 0
v -0.0025208902 0.00276042 0.004434578
v -0.003687279 0.0059868013 0.009295166
v -0.0050810766 0.011973602 0.018590331
v -0 0.027792966 0.039884858
v 0.0057304525 0.03419522 0.06631015
v -0.0059023714 0.024060518 0.041227773
v -0 0.037445333 0.06457813
v 0.005378151 0.040085793 0.09360814
v -0.0057304525 0.03419522 0.06631015
v -0 0.043444365 0.09279529
v 0.004570398 0.040688302 0.12211569
v -0.005378151 0.040085793 0.09360814
v -0 0.04380645 0.122766025
v 0.0032634067 0.034931533 0.15079038
v -0.004570398 0.040688302 0.12211569
v -0 0.03796298 0.15189125
v 0.0016656303 0.02173308 0.1785946
v -0.0032633971 0.034931533 0.15079036
v -0 0.023940286 0.18013029
v -0 -3.0621886E-06 0.20447856
v -0.0016656303 0.02173308 0.1785946
vt 0.04265587 0.21525675
vt 0.018964529 0.2284675
vt 0.11341029 0.22887784
vt 0.06634721 0.202046
vt 0.04185371 0.24188058
vt 0.06474289 0.25529367
vt 0.11052126 0.28211987
vt 0.11372989 0.17562452
vt 0.2191354 0.29143935
vt 0.22007012 0.22934121
vt 0.22287738 0.16725108
vt 0.33402687 0.29022887
vt 0.33510563 0.22984111
vt 0.33766586 0.16945904
vt 0.4522472 0.28695902
vt 0.45286745 0.2303524
vt 0.45565814 0.17375517
vt 0.5727385 0.27899122
vt 0.5715208 0.23086774
vt 0.5756379 0.18276754
vt 0.6961587 0.26587963
vt 0.69581926 0.23140773
vt 0.69823563 0.19694766
vt 0.8263221 0.25017014
vt 0.82623285 0.23197424
vt 0.82741845 0.21378377
vt 0.96914655 0.23259506
vt 0.11749601 0.07871608
vt 0.11300141 0.13180116
vt 0.22246403 0.14046669
vt 0.06581497 0.10512845
vt 0.042221755 0.09179211
vt 0.018628538 0.07845575
vt 0.042706758 0.06524496
vt 0.06678498 0.052034162
vt 0.11494142 0.025612568
vt 0.22490221 0.07899911
vt 0.33802092 0.13900158
vt 0.22471046 0.017524576
vt 0.33624548 0.079292364
vt 0.45752084 0.13572031
vt 0.34020233 0.01959831
vt 0.45722407 0.07961101
vt 0.57982844 0.127725
vt 0.45957094 0.023508733
vt 0.58276856 0.07994173
vt 0.7056488 0.11459435
vt 0.5815748 0.03214735
vt 0.7069957 0.08026899
vt 0.838317 0.09848917
vt 0.70690304 0.045939837
vt 0.83861136 0.08061565
vt 0.9830839 0.080996074
vt 0.8389703 0.06274215
vn 0.25004038 -0.8731687 0.41839728
vn -0 -0.90332985 0.4289467
vn -0 -0.8904095 0.4551601
vn 0.4623165 -0.78305346 0.41604185
vn -0.25004035 -0.8731687 0.41839728
vn -0.46231654 -0.7830534 0.41604188
vn -0.49833187 -0.7715478 0.39544836
vn 0.4983318 -0.7715478 0.3954482
vn -0.5177847 -0.78107244 0.349034
vn -0 -0.9112741 0.4118003
vn 0.5177847 -0.78107244 0.349034
vn -0.5372043 -0.80512935 0.25135282
vn -0 -0.95360863 0.3010492
vn 0.5372044 -0.8051293 0.25135288
vn -0.55279624 -0.8260644 0.109699145
vn -0 -0.99099004 0.13393526
vn 0.5527963 -0.8260644 0.109699175
vn -0.6038252 -0.79547346 -0.051157497
vn -0 -0.9984862 -0.055002905
vn 0.603825 -0.7954737 -0.05115766
vn -0.72202635 -0.66694254 -0.18402626
vn -0 -0.9652147 -0.26145858
vn 0.72202605 -0.6669427 -0.18402657
vn -0.8357527 -0.4919426 -0.24394654
vn -0 -0.8958201 -0.44441673
vn 0.83575237 -0.491943 -0.24394669
vn -0 -0.8267466 -0.56257457
vn -0 0.8636501 -0.5040919
vn 0.56868106 0.7079518 -0.4188151
vn 0.55873114 0.75045216 -0.35304552
vn 0.5092241 0.6642907 -0.54718256
vn 0.34645376 0.7022626 -0.62193006
vn 1.1891964E-07 0.74699366 -0.6648311
vn -0.3464538 0.7022625 -0.62193006
vn -0.5092242 0.66429067 -0.5471825
vn -0.5686811 0.7079517 -0.41881517
vn -0 0.90648085 -0.42224696
vn 0.54131335 0.8066283 -0.23734112
vn -0.55873114 0.75045216 -0.35304552
vn -0 0.956202 -0.2927076
vn 0.5410183 0.8360746 -0.09098593
vn -0.54131335 0.8066283 -0.23734112
vn -0 0.9933001 -0.11556353
vn 0.5859375 0.807445 0.06862815
vn -0.5410182 0.83607465 -0.09098593
vn 1.5294957E-07 0.99539125 0.095896974
vn 0.6950947 0.6827933 0.22502582
vn -0.58593756 0.807445 0.0686281
vn 1.2723459E-07 0.94807637 0.3180428
vn 0.79343146 0.51637566 0.32221526
vn -0.6950952 0.682793 0.2250255
vn -2.1807904E-07 0.8466796 0.5321029
vn -0 0.7130109 0.701153
vn -0.793432 0.5163751 0.3222149
g MSH_Grass1_0
f 3/3/3 2/2/2 1/1/1
f 3/3/3 1/1/1 4/4/4
f 3/3/3 5/5/5 2/2/2
f 3/3/3 6/6/6 5/5/5
f 3/3/3 7/7/7 6/6/6
f 3/3/3 4/4/4 8/8/8
f 9/9/9 7/7/7 3/3/3
f 10/10/10 3/3/3 8/8/8
f 10/10/10 9/9/9 3/3/3
f 11/11/11 10/10/10 8/8/8
f 12/12/12 9/9/9 10/10/10
f 13/13/13 10/10/10 11/11/11
f 13/13/13 12/12/12 10/10/10
f 14/14/14 13/13/13 11/11/11
f 15/15/15 12/12/12 13/13/13
f 16/16/16 13/13/13 14/14/14
f 16/16/16 15/15/15 13/13/13
f 17/17/17 16/16/16 14/14/14
f 18/18/18 15/15/15 16/16/16
f 19/19/19 16/16/16 17/17/17
f 19/19/19 18/18/18 16/16/16
f 20/20/20 19/19/19 17/17/17
f 21/21/21 18/18/18 19/19/19
f 22/22/22 19/19/19 20/20/20
f 22/22/22 21/21/21 19/19/19
f 23/23/23 22/22/22 20/20/20
f 24/24/24 21/21/21 22/22/22
f 25/25/25 22/22/22 23/23/23
f 25/25/25 24/24/24 22/22/22
f 26/26/26 25/25/25 23/23/23
f 27/27/27 24/24/24 25/25/25
f 27/27/27 25/25/25 26/26/26
f 30/30/30 29/29/29 28/28/28
f 31/31/31 28/28/28 29/29/29
f 31/31/31 32/32/32 28/28/28
f 32/32/32 33/33/33 28/28/28
f 33/33/33 34/34/34 28/28/28
f 34/34/34 35/35/35 28/28/28
f 35/35/35 36/36/36 28/28/28
f 37/37/37 30/30/30 28/28/28
f 37/37/37 28/28/28 36/36/36
f 38/38/38 30/30/30 37/37/37
f 39/39/39 37/37/37 36/36/36
f 40/40/40 38/38/38 37/37/37
f 40/40/40 37/37/37 39/39/39
f 41/41/41 38/38/38 40/40/40
f 42/42/42 40/40/40 39/39/39
f 43/43/43 41/41/41 40/40/40
f 43/43/43 40/40/40 42/42/42
f 44/44/44 41/41/41 43/43/43
f 45/45/45 43/43/43 42/42/42
f 46/46/46 44/44/44 43/43/43
f 46/46/46 43/43/43 45/45/45
f 47/47/47 44/44/44 46/46/46
f 48/48/48 46/46/46 45/45/45
f 49/49/49 47/47/47 46/46/46
f 49/49/49 46/46/46 48/48/48
f 50/50/50 47/47/47 49/49/49
f 51/51/51 49/49/49 48/48/48
f 52/52/52 50/50/50 49/49/49
f 52/52/52 49/49/49 51/51/51
f 53/53/53 50/50/50 52/52/52
f 54/54/54 52/52/52 51/51/51
f 53/53/53 52/52/52 54/54/54
